<?xml version="1.0" standalone="no"?>
<!DOCTYPE svg PUBLIC "-//W3C//DTD SVG 20010904//EN"
 "http://www.w3.org/TR/2001/REC-SVG-20010904/DTD/svg10.dtd">
<svg version="1.0" xmlns="http://www.w3.org/2000/svg"
 width="698.000000pt" height="698.000000pt" viewBox="0 0 698.000000 698.000000"
 preserveAspectRatio="xMidYMid meet">
<metadata>
Created by potrace 1.11, written by Peter Selinger 2001-2013
</metadata>
<g transform="translate(0.000000,698.000000) scale(0.100000,-0.100000)"
fill="#000000" stroke="none">
<path d="M2470 6960 c-217 -56 -363 -169 -663 -513 -142 -164 -162 -179 -327
-248 -53 -22 -134 -64 -195 -100 -16 -10 -43 -26 -60 -35 -51 -29 -180 -130
-242 -191 -128 -126 -257 -337 -287 -473 -34 -148 -39 -188 -40 -315 -1 -133
9 -268 20 -287 3 -4 7 -21 10 -36 8 -49 56 -185 89 -257 46 -98 47 -95 -6
-114 -26 -9 -53 -21 -60 -26 -8 -6 -36 -21 -62 -35 -108 -56 -242 -175 -323
-285 -24 -33 -48 -65 -53 -71 -16 -20 -81 -152 -101 -207 -40 -110 -49 -157
-57 -290 -9 -162 28 -316 141 -579 9 -21 16 -41 15 -44 0 -4 3 -10 8 -13 14
-10 173 -336 179 -366 3 -16 7 -32 10 -37 3 -5 7 -43 9 -85 3 -42 7 -104 10
-137 4 -34 8 -78 10 -100 3 -21 9 -64 16 -95 6 -31 12 -67 14 -81 2 -14 4 -25
5 -25 1 0 3 -7 5 -15 28 -117 58 -204 108 -310 31 -65 88 -162 110 -186 7 -7
23 -27 37 -45 65 -85 182 -179 300 -241 36 -19 67 -35 70 -36 3 0 17 -5 32
-11 191 -73 436 -87 626 -37 51 14 52 14 53 -7 2 -41 15 -149 24 -198 35 -193
171 -449 304 -574 24 -22 53 -50 64 -61 28 -28 119 -85 177 -112 47 -21 153
-51 205 -59 48 -6 196 -6 248 1 26 3 68 9 95 12 40 5 100 16 212 38 14 3 43
10 65 15 140 34 212 35 319 6 48 -13 99 -26 114 -29 15 -3 38 -7 52 -10 14 -3
36 -8 50 -11 14 -3 48 -8 75 -11 28 -3 66 -8 85 -10 47 -6 40 -6 170 0 63 3
130 9 148 15 18 5 35 10 37 10 49 -1 274 88 305 121 3 3 24 18 48 34 95 65
211 197 291 332 43 74 115 234 104 234 -3 0 -1 6 5 13 9 12 26 74 21 79 -1 2
2 12 8 23 9 17 24 95 26 133 0 10 8 12 26 7 191 -48 356 -52 512 -12 219 57
397 177 511 346 16 25 34 54 39 65 5 12 13 28 18 36 41 67 119 322 147 480 2
14 9 47 14 73 6 27 8 53 4 58 -3 5 -1 9 3 9 5 0 9 8 10 18 5 70 29 176 50 222
9 19 49 85 89 145 69 106 199 345 187 345 -3 0 -1 6 5 13 14 17 80 214 88 262
3 22 7 42 9 45 7 11 18 147 18 220 1 230 -76 466 -219 665 -61 86 -248 275
-272 275 -3 0 -13 6 -21 14 -37 33 -164 97 -244 123 -45 15 -47 17 -34 37 8
11 20 32 28 46 8 14 16 27 19 30 20 20 106 226 116 280 3 14 9 39 14 55 30 99
33 355 6 490 -55 264 -183 447 -427 607 -94 62 -143 90 -334 189 -158 82 -190
109 -296 247 -136 177 -325 354 -464 434 -88 52 -193 94 -291 118 -73 17 -272
21 -339 6 -70 -16 -176 -48 -202 -61 -15 -8 -33 -15 -38 -15 -17 0 -165 -90
-226 -136 -59 -45 -189 -173 -189 -186 0 -5 -7 -8 -15 -8 -8 0 -15 3 -15 8 0
7 -20 32 -81 98 -63 69 -210 184 -236 184 -6 0 -13 3 -15 8 -5 11 -87 49 -158
72 -151 50 -327 62 -450 30z m348 -305 c44 -6 108 -20 142 -33 8 -3 23 -7 32
-8 26 -6 175 -85 197 -105 11 -11 24 -19 29 -19 10 0 133 -117 184 -176 l36
-42 13 24 c25 47 181 183 269 233 86 49 218 102 295 116 86 17 182 21 265 11
46 -6 59 -8 120 -25 211 -58 437 -232 640 -496 43 -55 91 -111 107 -125 15
-14 84 -54 153 -89 416 -213 558 -341 660 -596 11 -28 30 -95 34 -125 3 -14 5
-25 6 -25 3 0 11 -97 14 -170 2 -93 -16 -242 -38 -306 -9 -24 -16 -50 -16 -57
0 -16 -92 -207 -120 -249 l-22 -33 24 -9 c173 -67 267 -126 391 -249 77 -75
171 -209 217 -308 16 -36 30 -67 30 -69 0 -2 5 -16 11 -32 6 -15 10 -29 10
-30 0 -2 5 -17 10 -35 6 -18 12 -44 15 -58 3 -14 8 -36 11 -50 8 -36 9 -257 0
-310 -10 -65 -34 -166 -58 -235 -25 -76 -133 -300 -165 -342 -13 -17 -24 -33
-24 -36 0 -2 -24 -41 -54 -86 -53 -81 -78 -150 -92 -261 -2 -19 -6 -42 -9 -50
-2 -8 -7 -31 -10 -50 -24 -149 -79 -350 -122 -450 -37 -86 -84 -170 -95 -170
-4 0 -8 -5 -8 -11 0 -18 -120 -131 -175 -166 -104 -66 -229 -114 -340 -131
-84 -12 -259 -4 -332 15 -81 22 -76 24 -88 -47 -13 -73 -20 -102 -42 -170 -26
-82 -110 -244 -164 -315 -59 -78 -173 -192 -201 -201 -10 -3 -18 -9 -18 -14 0
-19 -197 -107 -278 -125 -12 -3 -32 -7 -44 -10 -36 -8 -159 -18 -213 -18 -82
0 -263 22 -317 39 -9 3 -25 6 -35 9 -10 2 -51 12 -90 23 -86 24 -139 22 -290
-12 -60 -13 -124 -27 -143 -30 -19 -3 -53 -8 -75 -12 -22 -4 -49 -7 -60 -8
-11 -1 -24 -4 -30 -7 -5 -3 -64 -4 -130 -4 -144 2 -218 19 -334 77 -102 51
-224 165 -303 283 -52 76 -125 232 -134 285 -3 14 -9 39 -15 56 -12 39 -27
147 -28 208 -1 23 -4 27 -18 21 -10 -4 -32 -9 -50 -11 -17 -2 -42 -8 -55 -13
-32 -11 -259 -11 -311 1 -23 5 -50 11 -61 14 -149 30 -331 130 -445 245 -81
82 -162 210 -213 339 -29 74 -74 234 -83 295 -3 22 -10 69 -16 105 -5 36 -12
106 -15 155 -8 144 -21 189 -103 349 -143 280 -205 445 -226 596 -7 49 -7 190
-1 220 3 14 8 39 12 55 26 137 116 316 212 427 93 107 226 207 340 254 37 15
69 29 71 31 2 2 -11 33 -29 70 -47 97 -83 208 -105 323 -4 19 -8 103 -10 185
-4 241 42 409 164 595 59 90 215 240 326 312 97 63 252 144 268 140 4 -1 7 3
7 8 0 6 6 10 13 10 8 0 41 14 74 30 59 30 101 69 206 194 115 138 239 259 334
328 162 118 318 159 511 133z"/>
<path d="M3277 6164 c-2 -2 -21 -6 -42 -8 -70 -9 -119 -17 -160 -27 -22 -5
-51 -12 -65 -15 -36 -7 -120 -33 -155 -49 -16 -7 -41 -16 -55 -20 -37 -11
-185 -83 -255 -124 -228 -134 -466 -366 -602 -586 -75 -122 -146 -276 -183
-398 -32 -107 -49 -179 -66 -287 -17 -113 -23 -318 -10 -425 10 -95 27 -198
37 -225 5 -14 10 -36 13 -50 23 -134 175 -455 280 -592 12 -14 32 -41 46 -59
48 -63 148 -168 222 -235 37 -32 44 -34 44 -11 1 41 13 192 18 212 2 11 7 41
10 67 7 48 49 222 65 268 37 102 71 186 103 252 l37 78 -33 77 c-95 223 -104
422 -32 705 3 9 19 49 36 90 65 149 185 298 322 401 52 38 179 108 233 128
150 54 205 63 375 63 163 -1 283 -30 435 -106 139 -69 284 -194 366 -316 18
-26 34 -49 35 -51 2 -2 29 -5 61 -7 114 -7 159 -13 291 -39 44 -9 104 -25 152
-42 25 -8 52 -16 60 -18 25 -5 212 -87 267 -117 28 -15 54 -28 58 -28 7 0 -4
89 -13 105 -3 5 -7 21 -9 36 -10 93 -173 482 -217 518 -9 7 -16 18 -16 23 0
10 -63 101 -87 126 -7 7 -13 17 -13 22 0 9 -219 233 -260 265 -133 107 -296
205 -430 259 -36 15 -74 31 -85 35 -75 31 -249 74 -345 87 -25 3 -54 8 -65 11
-21 6 -362 12 -368 7z"/>
<path d="M2655 4736 c-60 -136 -83 -314 -61 -466 7 -49 34 -148 46 -171 6 -10
8 -19 5 -19 -2 0 4 -14 15 -32 15 -25 27 -33 52 -34 32 -1 81 -8 143 -20 17
-3 64 -17 105 -31 192 -65 351 -178 468 -333 31 -41 62 -78 67 -82 24 -18 205
24 308 71 125 57 288 191 340 279 l17 30 -52 79 c-29 43 -54 80 -57 83 -4 3
-23 26 -44 53 -100 123 -253 260 -402 357 -92 60 -289 159 -355 179 -25 7 -54
17 -65 22 -21 8 -55 18 -67 20 -4 0 -22 5 -40 10 -30 9 -100 24 -153 34 -36 6
-139 17 -193 20 l-54 3 -23 -52z"/>
<path d="M4099 4776 c-2 -2 -33 -6 -69 -9 -96 -9 -293 -52 -355 -78 -16 -7
-34 -13 -39 -13 -28 -3 -6 -27 69 -75 46 -30 97 -66 113 -80 17 -14 43 -36 59
-48 64 -51 149 -137 257 -263 37 -43 126 -176 126 -188 0 -7 15 -13 33 -13 17
-1 41 -3 52 -4 11 -2 40 -6 65 -10 104 -15 380 -129 380 -157 0 -4 5 -8 11 -8
16 0 93 -63 152 -125 131 -134 229 -326 266 -515 18 -91 15 -349 -4 -381 -2
-3 -7 -19 -10 -35 -3 -16 -7 -34 -9 -41 -1 -7 -5 -16 -9 -19 -4 -4 -7 -14 -7
-23 0 -27 -96 -212 -140 -271 -174 -234 -461 -392 -731 -404 -41 -2 -54 -13
-89 -71 -13 -22 -29 -45 -35 -51 -21 -24 -45 -54 -45 -58 0 -25 -299 -316
-359 -350 -9 -5 -18 -12 -21 -15 -3 -3 -12 -10 -21 -16 -83 -52 -140 -93 -133
-97 12 -7 108 -38 114 -37 3 0 17 -4 33 -10 15 -6 38 -13 50 -15 12 -3 54 -11
93 -20 186 -40 485 -43 647 -7 26 6 64 14 85 17 114 18 435 149 518 211 17 13
34 23 37 23 8 0 129 86 174 122 117 96 311 317 378 430 65 111 142 267 150
303 1 5 7 21 13 35 9 21 55 170 54 177 0 2 6 29 13 60 47 202 51 461 11 673
-26 137 -24 127 -60 240 -36 112 -94 243 -128 293 -11 15 -17 27 -14 27 5 0
-34 63 -54 87 -5 7 -10 15 -10 19 0 3 -28 43 -62 88 -57 75 -91 115 -158 185
-38 39 -177 158 -208 178 -15 10 -29 20 -32 23 -20 23 -217 133 -310 173 -68
29 -195 75 -229 82 -140 31 -202 45 -231 50 -40 7 -374 17 -381 11z"/>
<path d="M1479 4353 c-249 -218 -443 -522 -536 -843 -25 -85 -27 -95 -39 -160
-4 -19 -8 -44 -10 -55 -12 -64 -17 -147 -17 -280 1 -188 7 -244 47 -423 11
-48 30 -108 38 -116 4 -6 8 -18 8 -27 0 -22 60 -164 107 -254 149 -286 382
-532 658 -694 91 -54 249 -131 269 -131 6 0 16 -4 21 -8 6 -5 30 -14 55 -21
25 -7 54 -17 65 -21 18 -8 86 -24 143 -35 13 -2 31 -6 40 -9 46 -14 134 -19
307 -20 201 -1 261 5 410 41 17 4 32 7 35 8 59 13 77 19 88 27 6 6 12 8 12 5
0 -6 101 30 165 59 22 10 42 18 45 18 3 1 40 20 82 44 42 23 80 42 83 42 3 0
11 4 18 10 7 5 48 35 92 66 44 31 87 62 95 69 40 33 238 234 260 263 14 19 35
46 47 60 13 15 23 30 23 34 0 4 8 17 17 28 33 38 122 202 162 298 52 128 105
303 116 387 2 16 -7 28 -14 18 -7 -10 -162 -86 -201 -98 -14 -4 -29 -11 -35
-15 -9 -7 -108 -42 -130 -46 -5 -1 -37 -10 -70 -20 -33 -10 -63 -17 -66 -16
-4 1 -22 -3 -40 -9 -32 -9 -113 -22 -151 -23 -10 0 -18 -3 -18 -6 0 -3 -26 -6
-58 -6 -114 -3 -107 1 -155 -66 -139 -195 -401 -359 -626 -393 -22 -3 -55 -8
-73 -11 -42 -7 -188 -6 -231 1 -130 21 -188 39 -302 90 -132 59 -301 199 -376
310 -19 28 -37 52 -41 55 -9 7 -97 190 -103 215 -3 11 -12 45 -20 75 -24 84
-29 134 -28 265 0 117 21 241 54 320 7 17 13 33 13 36 1 3 11 28 24 55 l23 49
-44 95 c-69 146 -128 330 -151 468 -4 17 -8 44 -11 60 -8 47 -18 165 -19 220
0 28 -3 52 -7 52 -3 0 -26 -17 -50 -37z"/>
<path d="M2692 3871 c-14 -9 -90 -172 -122 -263 -31 -90 -66 -222 -75 -284 -3
-21 -8 -45 -11 -53 -8 -23 -17 -179 -17 -276 0 -146 14 -252 58 -440 19 -81
77 -229 138 -353 l21 -43 51 6 c69 8 100 14 130 25 14 5 25 8 25 5 0 -12 167
68 227 108 75 51 115 86 186 167 46 52 56 76 39 95 -8 9 -54 118 -59 140 -1 6
-9 35 -17 65 -54 204 -34 439 57 644 l35 80 -26 35 c-42 57 -144 161 -158 161
-7 0 -14 3 -16 8 -16 37 -218 136 -323 158 -55 12 -135 20 -143 15z"/>
<path d="M4272 3841 c-46 -76 -142 -177 -230 -243 -118 -88 -300 -167 -421
-183 -14 -2 -28 -4 -31 -5 -10 -4 -36 -7 -77 -8 -49 -2 -57 -13 -92 -123 -64
-197 -59 -388 15 -582 l27 -69 96 6 c87 5 128 10 186 21 111 21 154 32 245 61
181 60 442 200 560 302 14 11 35 30 48 41 65 55 128 119 187 189 110 130 115
136 115 149 0 7 3 13 8 13 8 0 42 57 42 72 0 28 -131 167 -215 228 -112 81
-268 141 -408 155 -33 4 -40 1 -55 -24z"/>
</g>
</svg>
