<svg width="75" height="75" viewBox="0 0 75 75" fill="none" xmlns="http://www.w3.org/2000/svg">
<rect width="75" height="75" fill="white"/>
<path d="M75 9L0 9L0 66H75V9Z" fill="#E6E6E6"/>
<path d="M25 36H4V37H25V36Z" fill="#783DF6"/>
<path d="M25 16H4L4 36H25V16Z" fill="white"/>
<path d="M17.5 30.5H6.5C6.22386 30.5 6 30.7239 6 31C6 31.2761 6.22386 31.5 6.5 31.5H17.5C17.7761 31.5 18 31.2761 18 31C18 30.7239 17.7761 30.5 17.5 30.5Z" fill="black"/>
<path d="M12.5 33H6.5C6.22386 33 6 33.2239 6 33.5C6 33.7761 6.22386 34 6.5 34H12.5C12.7761 34 13 33.7761 13 33.5C13 33.2239 12.7761 33 12.5 33Z" fill="#746D6D"/>
<path d="M25 22.6695L22.2812 20.9043L15.0625 25.5913L11.2187 23.0956L4 27.7826L4 28.5H25V22.6695Z" fill="#746D6D"/>
<path fill-rule="evenodd" clip-rule="evenodd" d="M15.0625 24.4217L11.2187 21.9261L4 26.5522V16H25V21.5L22.2812 19.7348L15.0625 24.4217ZM7.5 21C8.32843 21 9 20.3284 9 19.5C9 18.6716 8.32843 18 7.5 18C6.67157 18 6 18.6716 6 19.5C6 20.3284 6.67157 21 7.5 21Z" fill="#746D6D"/>
<circle cx="7.5" cy="19.5" r="0.75" fill="#746D6D"/>
<path d="M25 59H4V60H25V59Z" fill="#783DF6"/>
<path d="M25 39H4L4 59H25V39Z" fill="white"/>
<path d="M17.5 53.5H6.5C6.22386 53.5 6 53.7239 6 54C6 54.2761 6.22386 54.5 6.5 54.5H17.5C17.7761 54.5 18 54.2761 18 54C18 53.7239 17.7761 53.5 17.5 53.5Z" fill="black"/>
<path d="M12.5 56H6.5C6.22386 56 6 56.2239 6 56.5C6 56.7761 6.22386 57 6.5 57H12.5C12.7761 57 13 56.7761 13 56.5C13 56.2239 12.7761 56 12.5 56Z" fill="#746D6D"/>
<path d="M25 45.6695L22.2812 43.9043L15.0625 48.5913L11.2187 46.0956L4 50.7826L4 51.5H25V45.6695Z" fill="#746D6D"/>
<path fill-rule="evenodd" clip-rule="evenodd" d="M15.0625 47.4217L11.2187 44.9261L4 49.5522V39H25V44.5L22.2812 42.7348L15.0625 47.4217ZM7.5 44C8.32843 44 9 43.3284 9 42.5C9 41.6716 8.32843 41 7.5 41C6.67157 41 6 41.6716 6 42.5C6 43.3284 6.67157 44 7.5 44Z" fill="#746D6D"/>
<circle cx="7.5" cy="42.5" r="0.75" fill="#746D6D"/>
<path d="M48 59H27V60H48V59Z" fill="#783DF6"/>
<path d="M48 39H27V59H48V39Z" fill="white"/>
<path d="M40.5 53.5H29.5C29.2239 53.5 29 53.7239 29 54C29 54.2761 29.2239 54.5 29.5 54.5H40.5C40.7761 54.5 41 54.2761 41 54C41 53.7239 40.7761 53.5 40.5 53.5Z" fill="black"/>
<path d="M35.5 56H29.5C29.2239 56 29 56.2239 29 56.5C29 56.7761 29.2239 57 29.5 57H35.5C35.7761 57 36 56.7761 36 56.5C36 56.2239 35.7761 56 35.5 56Z" fill="#746D6D"/>
<path d="M48 45.6695L45.2812 43.9043L38.0625 48.5913L34.2187 46.0956L27 50.7826L27 51.5H48V45.6695Z" fill="#746D6D"/>
<path fill-rule="evenodd" clip-rule="evenodd" d="M38.0625 47.4217L34.2187 44.9261L27 49.5522V39H48V44.5L45.2812 42.7348L38.0625 47.4217ZM30.5 44C31.3284 44 32 43.3284 32 42.5C32 41.6716 31.3284 41 30.5 41C29.6716 41 29 41.6716 29 42.5C29 43.3284 29.6716 44 30.5 44Z" fill="#746D6D"/>
<circle cx="30.5" cy="42.5" r="0.75" fill="#746D6D"/>
<path d="M48 36H27V37H48V36Z" fill="#783DF6"/>
<path d="M48 16H27V36H48V16Z" fill="white"/>
<path d="M40.5 30.5H29.5C29.2239 30.5 29 30.7239 29 31C29 31.2761 29.2239 31.5 29.5 31.5H40.5C40.7761 31.5 41 31.2761 41 31C41 30.7239 40.7761 30.5 40.5 30.5Z" fill="black"/>
<path d="M35.5 33H29.5C29.2239 33 29 33.2239 29 33.5C29 33.7761 29.2239 34 29.5 34H35.5C35.7761 34 36 33.7761 36 33.5C36 33.2239 35.7761 33 35.5 33Z" fill="#746D6D"/>
<path d="M48 22.6695L45.2812 20.9043L38.0625 25.5913L34.2187 23.0956L27 27.7826L27 28.5H48V22.6695Z" fill="#746D6D"/>
<path fill-rule="evenodd" clip-rule="evenodd" d="M38.0625 24.4217L34.2187 21.9261L27 26.5522V16H48V21.5L45.2812 19.7348L38.0625 24.4217ZM30.5 21C31.3284 21 32 20.3284 32 19.5C32 18.6716 31.3284 18 30.5 18C29.6716 18 29 18.6716 29 19.5C29 20.3284 29.6716 21 30.5 21Z" fill="#746D6D"/>
<circle cx="30.5" cy="19.5" r="0.75" fill="#746D6D"/>
<path d="M71 36H50V37H71V36Z" fill="#783DF6"/>
<path d="M71 16H50V36H71V16Z" fill="white"/>
<path d="M63.5 30.5H52.5C52.2239 30.5 52 30.7239 52 31C52 31.2761 52.2239 31.5 52.5 31.5H63.5C63.7761 31.5 64 31.2761 64 31C64 30.7239 63.7761 30.5 63.5 30.5Z" fill="black"/>
<path d="M58.5 33H52.5C52.2239 33 52 33.2239 52 33.5C52 33.7761 52.2239 34 52.5 34H58.5C58.7761 34 59 33.7761 59 33.5C59 33.2239 58.7761 33 58.5 33Z" fill="#746D6D"/>
<path d="M71 22.6695L68.2812 20.9043L61.0625 25.5913L57.2187 23.0956L50 27.7826L50 28.5H71V22.6695Z" fill="#746D6D"/>
<path fill-rule="evenodd" clip-rule="evenodd" d="M61.0625 24.4217L57.2187 21.9261L50 26.5522V16H71V21.5L68.2812 19.7348L61.0625 24.4217ZM53.5 21C54.3284 21 55 20.3284 55 19.5C55 18.6716 54.3284 18 53.5 18C52.6716 18 52 18.6716 52 19.5C52 20.3284 52.6716 21 53.5 21Z" fill="#746D6D"/>
<circle cx="53.5" cy="19.5" r="0.75" fill="#746D6D"/>
<path d="M71 59H50V60H71V59Z" fill="#783DF6"/>
<path d="M71 39H50V59H71V39Z" fill="white"/>
<path d="M63.5 53.5H52.5C52.2239 53.5 52 53.7239 52 54C52 54.2761 52.2239 54.5 52.5 54.5H63.5C63.7761 54.5 64 54.2761 64 54C64 53.7239 63.7761 53.5 63.5 53.5Z" fill="black"/>
<path d="M58.5 56H52.5C52.2239 56 52 56.2239 52 56.5C52 56.7761 52.2239 57 52.5 57H58.5C58.7761 57 59 56.7761 59 56.5C59 56.2239 58.7761 56 58.5 56Z" fill="#746D6D"/>
<path d="M71 45.6695L68.2812 43.9043L61.0625 48.5913L57.2187 46.0956L50 50.7826L50 51.5H71V45.6695Z" fill="#746D6D"/>
<path fill-rule="evenodd" clip-rule="evenodd" d="M61.0625 47.4217L57.2187 44.9261L50 49.5522V39H71V44.5L68.2812 42.7348L61.0625 47.4217ZM53.5 44C54.3284 44 55 43.3284 55 42.5C55 41.6716 54.3284 41 53.5 41C52.6716 41 52 41.6716 52 42.5C52 43.3284 52.6716 44 53.5 44Z" fill="#746D6D"/>
<circle cx="53.5" cy="42.5" r="0.75" fill="#746D6D"/>
</svg>
