<svg width="75" height="75" viewBox="0 0 75 75" fill="none" xmlns="http://www.w3.org/2000/svg">
<rect width="75" height="75" fill="white"/>
<path d="M16.4375 23.2215C16.4376 23.1599 16.4255 23.0989 16.4019 23.0419C16.3784 22.985 16.3438 22.9333 16.3003 22.8897C16.2567 22.8462 16.205 22.8116 16.1481 22.7881C16.0911 22.7645 16.0301 22.7524 15.9685 22.7525H15.0315C14.9699 22.7524 14.9089 22.7645 14.8519 22.7881C14.795 22.8116 14.7433 22.8462 14.6997 22.8897C14.6562 22.9333 14.6216 22.985 14.5981 23.0419C14.5745 23.0989 14.5624 23.1599 14.5625 23.2215V26.503H12.653C12.235 26.503 12.026 27.01 12.323 27.3045L15.148 30.108C15.2416 30.2008 15.3682 30.2529 15.5 30.2529C15.6318 30.2529 15.7584 30.2008 15.852 30.108L18.677 27.3045C18.9735 27.01 18.765 26.503 18.3465 26.503H16.4375V23.2215V23.2215ZM22.4465 17.8275L19.1695 14.551C18.8186 14.1991 18.3424 14.001 17.8455 14H9.875C9.3776 14.0016 8.90108 14.2001 8.54969 14.5522C8.1983 14.9042 8.00066 15.3811 8 15.8785V32.1255C8.00013 32.6227 8.19774 33.0995 8.54935 33.451C8.90097 33.8025 9.37781 34 9.875 34H21.1225C22.1575 34 23 33.16 23 32.125V19.155C23 18.6595 22.798 18.179 22.4465 17.8275V17.8275ZM17.998 16.031L20.9705 19.0025H17.998V16.031ZM21.125 32.125H9.875V15.8785H16.1235V19.94C16.1232 20.0632 16.1472 20.1853 16.1942 20.2992C16.2412 20.413 16.3102 20.5165 16.3974 20.6036C16.4845 20.6908 16.588 20.7598 16.7018 20.8068C16.8157 20.8538 16.9378 20.8778 17.061 20.8775H21.125V32.125Z" fill="black"/>
<path d="M64.5 18H29.5C28.1193 18 27 19.1193 27 20.5C27 21.8807 28.1193 23 29.5 23H64.5C65.8807 23 67 21.8807 67 20.5C67 19.1193 65.8807 18 64.5 18Z" fill="black"/>
<path d="M42.5 26H28.5C27.6716 26 27 26.6716 27 27.5C27 28.3284 27.6716 29 28.5 29H42.5C43.3284 29 44 28.3284 44 27.5C44 26.6716 43.3284 26 42.5 26Z" fill="#746D6D"/>
<path d="M16.4375 49.2215C16.4376 49.1599 16.4255 49.0989 16.4019 49.0419C16.3784 48.985 16.3438 48.9333 16.3003 48.8897C16.2567 48.8462 16.205 48.8116 16.1481 48.7881C16.0911 48.7645 16.0301 48.7524 15.9685 48.7525H15.0315C14.9699 48.7524 14.9089 48.7645 14.8519 48.7881C14.795 48.8116 14.7433 48.8462 14.6997 48.8897C14.6562 48.9333 14.6216 48.985 14.5981 49.0419C14.5745 49.0989 14.5624 49.1599 14.5625 49.2215V52.503H12.653C12.235 52.503 12.026 53.01 12.323 53.3045L15.148 56.108C15.2416 56.2008 15.3682 56.2529 15.5 56.2529C15.6318 56.2529 15.7584 56.2008 15.852 56.108L18.677 53.3045C18.9735 53.01 18.765 52.503 18.3465 52.503H16.4375V49.2215V49.2215ZM22.4465 43.8275L19.1695 40.551C18.8186 40.1991 18.3424 40.001 17.8455 40H9.875C9.3776 40.0016 8.90108 40.2001 8.54969 40.5522C8.1983 40.9042 8.00066 41.3811 8 41.8785V58.1255C8.00013 58.6227 8.19774 59.0995 8.54935 59.451C8.90097 59.8025 9.37781 60 9.875 60H21.1225C22.1575 60 23 59.16 23 58.125V45.155C23 44.6595 22.798 44.179 22.4465 43.8275V43.8275ZM17.998 42.031L20.9705 45.0025H17.998V42.031ZM21.125 58.125H9.875V41.8785H16.1235V45.94C16.1232 46.0632 16.1472 46.1853 16.1942 46.2992C16.2412 46.413 16.3102 46.5165 16.3974 46.6036C16.4845 46.6908 16.588 46.7598 16.7018 46.8068C16.8157 46.8538 16.9378 46.8778 17.061 46.8775H21.125V58.125Z" fill="black"/>
<path d="M64.5 44H29.5C28.1193 44 27 45.1193 27 46.5C27 47.8807 28.1193 49 29.5 49H64.5C65.8807 49 67 47.8807 67 46.5C67 45.1193 65.8807 44 64.5 44Z" fill="black"/>
<path d="M42.5 52H28.5C27.6716 52 27 52.6716 27 53.5C27 54.3284 27.6716 55 28.5 55H42.5C43.3284 55 44 54.3284 44 53.5C44 52.6716 43.3284 52 42.5 52Z" fill="#746D6D"/>
</svg>
