<svg width="75" height="75" viewBox="0 0 75 75" fill="none" xmlns="http://www.w3.org/2000/svg">
<rect width="75" height="75" fill="white"/>
<path d="M24.9221 17.0638L22.6058 14.7475L16.4557 20.8976L13.181 17.6229L7.03094 23.7729V25.3704H24.9221V17.0638Z" fill="black"/>
<path d="M13.181 15.3865L16.4557 18.6612L22.6058 12.5111L24.9221 14.8274V7H7.03094V21.4567L13.181 15.3865ZM11.2641 8.51755C12.8615 8.51755 14.2193 9.87536 14.2193 11.4728C14.2193 13.0702 12.8615 14.428 11.2641 14.428C9.66669 14.428 8.30888 13.0702 8.30888 11.4728C8.30888 9.87536 9.66669 8.51755 11.2641 8.51755Z" fill="black"/>
<path d="M11.2641 12.8306C12.014 12.8306 12.6219 12.2227 12.6219 11.4728C12.6219 10.7229 12.014 10.115 11.2641 10.115C10.5142 10.115 9.90625 10.7229 9.90625 11.4728C9.90625 12.2227 10.5142 12.8306 11.2641 12.8306Z" fill="black"/>
<path d="M24.9221 38.8786L22.6058 36.5623L16.4557 42.7124L13.181 39.4377L7.03094 45.5878V47.1852H24.9221V38.8786Z" fill="black"/>
<path d="M13.181 37.2013L16.4557 40.476L22.6058 34.3259L24.9221 36.6422V28.8148H7.03094V43.2715L13.181 37.2013ZM11.2641 30.3324C12.8615 30.3324 14.2193 31.6902 14.2193 33.2876C14.2193 34.885 12.8615 36.2428 11.2641 36.2428C9.66669 36.2428 8.30888 34.885 8.30888 33.2876C8.30888 31.6902 9.66669 30.3324 11.2641 30.3324Z" fill="black"/>
<path d="M11.2641 34.6455C12.014 34.6455 12.6219 34.0375 12.6219 33.2876C12.6219 32.5378 12.014 31.9298 11.2641 31.9298C10.5142 31.9298 9.90625 32.5378 9.90625 33.2876C9.90625 34.0375 10.5142 34.6455 11.2641 34.6455Z" fill="black"/>
<path d="M46.737 38.8786L44.4207 36.5623L38.2706 42.7124L34.9959 39.4377L28.8458 45.5878V47.1852H46.737V38.8786Z" fill="black"/>
<path d="M34.9958 37.2013L38.2706 40.476L44.4206 34.3259L46.7369 36.6422V28.8148H28.8458V43.2715L34.9958 37.2013ZM33.0789 30.3324C34.6764 30.3324 36.0342 31.6902 36.0342 33.2876C36.0342 34.885 34.6764 36.2428 33.0789 36.2428C31.4815 36.2428 30.1237 34.885 30.1237 33.2876C30.1237 31.6902 31.4815 30.3324 33.0789 30.3324Z" fill="black"/>
<path d="M33.0789 34.6455C33.8288 34.6455 34.4367 34.0375 34.4367 33.2876C34.4367 32.5378 33.8288 31.9298 33.0789 31.9298C32.329 31.9298 31.7211 32.5378 31.7211 33.2876C31.7211 34.0375 32.329 34.6455 33.0789 34.6455Z" fill="black"/>
<path d="M68.5517 38.8786L66.2354 36.5623L60.0854 42.7124L56.8107 39.4377L50.6606 45.5878V47.1852H68.5517V38.8786Z" fill="black"/>
<path d="M56.8107 37.2013L60.0854 40.476L66.2354 34.3259L68.5517 36.6422V28.8148H50.6606V43.2715L56.8107 37.2013ZM54.8938 30.3324C56.4912 30.3324 57.849 31.6902 57.849 33.2876C57.849 34.885 56.4912 36.2428 54.8938 36.2428C53.2963 36.2428 51.9385 34.885 51.9385 33.2876C51.9385 31.6902 53.2963 30.3324 54.8938 30.3324Z" fill="black"/>
<path d="M54.8938 34.6455C55.6437 34.6455 56.2516 34.0375 56.2516 33.2876C56.2516 32.5378 55.6437 31.9298 54.8938 31.9298C54.1439 31.9298 53.5359 32.5378 53.5359 33.2876C53.5359 34.0375 54.1439 34.6455 54.8938 34.6455Z" fill="black"/>
<path d="M24.9221 60.6934L22.6058 58.3771L16.4557 64.5272L13.181 61.2525L7.03094 67.4026V69H24.9221V60.6934Z" fill="black"/>
<path d="M13.181 59.0161L16.4557 62.2908L22.6058 56.1407L24.9221 58.457V50.6296H7.03094V65.0863L13.181 59.0161ZM11.2641 52.1472C12.8615 52.1472 14.2193 53.505 14.2193 55.1024C14.2193 56.6998 12.8615 58.0577 11.2641 58.0577C9.66669 58.0577 8.30888 56.6998 8.30888 55.1024C8.30888 53.505 9.66669 52.1472 11.2641 52.1472Z" fill="black"/>
<path d="M11.2641 56.4602C12.014 56.4602 12.6219 55.8523 12.6219 55.1024C12.6219 54.3525 12.014 53.7446 11.2641 53.7446C10.5142 53.7446 9.90625 54.3525 9.90625 55.1024C9.90625 55.8523 10.5142 56.4602 11.2641 56.4602Z" fill="black"/>
<path d="M46.737 60.6934L44.4207 58.3771L38.2706 64.5272L34.9959 61.2525L28.8458 67.4026V69H46.737V60.6934Z" fill="black"/>
<path d="M34.9958 59.0161L38.2706 62.2908L44.4206 56.1407L46.7369 58.457V50.6296H28.8458V65.0863L34.9958 59.0161ZM33.0789 52.1472C34.6764 52.1472 36.0342 53.505 36.0342 55.1024C36.0342 56.6998 34.6764 58.0577 33.0789 58.0577C31.4815 58.0577 30.1237 56.6998 30.1237 55.1024C30.1237 53.505 31.4815 52.1472 33.0789 52.1472Z" fill="black"/>
<path d="M33.0789 56.4602C33.8288 56.4602 34.4367 55.8523 34.4367 55.1024C34.4367 54.3525 33.8288 53.7446 33.0789 53.7446C32.329 53.7446 31.7211 54.3525 31.7211 55.1024C31.7211 55.8523 32.329 56.4602 33.0789 56.4602Z" fill="black"/>
<path d="M46.737 17.0638L44.4207 14.7475L38.2706 20.8976L34.9959 17.6229L28.8458 23.7729V25.3704H46.737V17.0638Z" fill="black"/>
<path d="M34.9958 15.3865L38.2706 18.6612L44.4206 12.5111L46.7369 14.8274V7H28.8458V21.4567L34.9958 15.3865ZM33.0789 8.51755C34.6764 8.51755 36.0342 9.87536 36.0342 11.4728C36.0342 13.0702 34.6764 14.428 33.0789 14.428C31.4815 14.428 30.1237 13.0702 30.1237 11.4728C30.1237 9.87536 31.4815 8.51755 33.0789 8.51755Z" fill="black"/>
<path d="M33.0789 12.8306C33.8288 12.8306 34.4367 12.2227 34.4367 11.4728C34.4367 10.7229 33.8288 10.115 33.0789 10.115C32.329 10.115 31.7211 10.7229 31.7211 11.4728C31.7211 12.2227 32.329 12.8306 33.0789 12.8306Z" fill="black"/>
<path d="M68.5517 17.0638L66.2354 14.7475L60.0854 20.8976L56.8107 17.6229L50.6606 23.7729V25.3704H68.5517V17.0638Z" fill="black"/>
<path d="M56.8107 15.3865L60.0854 18.6612L66.2354 12.5111L68.5517 14.8274V7H50.6606V21.4567L56.8107 15.3865ZM54.8938 8.51755C56.4912 8.51755 57.849 9.87536 57.849 11.4728C57.849 13.0702 56.4912 14.428 54.8938 14.428C53.2963 14.428 51.9385 13.0702 51.9385 11.4728C51.9385 9.87536 53.2963 8.51755 54.8938 8.51755Z" fill="black"/>
<path d="M54.8938 12.8306C55.6437 12.8306 56.2516 12.2227 56.2516 11.4728C56.2516 10.7229 55.6437 10.115 54.8938 10.115C54.1439 10.115 53.5359 10.7229 53.5359 11.4728C53.5359 12.2227 54.1439 12.8306 54.8938 12.8306Z" fill="black"/>
</svg>
