<svg width="75" height="75" viewBox="0 0 75 75" fill="none" xmlns="http://www.w3.org/2000/svg">
<rect width="75" height="75" fill="white"/>
<path d="M66 45H9C7.89543 45 7 45.8954 7 47C7 48.1046 7.89543 49 9 49H66C67.1046 49 68 48.1046 68 47C68 45.8954 67.1046 45 66 45Z" fill="black" fill-opacity="0.6"/>
<path d="M64.5 10H10.5C8.567 10 7 11.567 7 13.5C7 15.433 8.567 17 10.5 17H64.5C66.433 17 68 15.433 68 13.5C68 11.567 66.433 10 64.5 10Z" fill="black"/>
<path d="M64.5 20H10.5C8.567 20 7 21.567 7 23.5C7 25.433 8.567 27 10.5 27H64.5C66.433 27 68 25.433 68 23.5C68 21.567 66.433 20 64.5 20Z" fill="black"/>
<path d="M39.5 30H10.5C8.567 30 7 31.567 7 33.5C7 35.433 8.567 37 10.5 37H39.5C41.433 37 43 35.433 43 33.5C43 31.567 41.433 30 39.5 30Z" fill="black"/>
<path d="M66 53H9C7.89543 53 7 53.8954 7 55C7 56.1046 7.89543 57 9 57H66C67.1046 57 68 56.1046 68 55C68 53.8954 67.1046 53 66 53Z" fill="black" fill-opacity="0.6"/>
<path d="M35 61H9C7.89543 61 7 61.8954 7 63C7 64.1046 7.89543 65 9 65H35C36.1046 65 37 64.1046 37 63C37 61.8954 36.1046 61 35 61Z" fill="black" fill-opacity="0.6"/>
<path d="M64.5 10H10.5C8.567 10 7 11.567 7 13.5C7 15.433 8.567 17 10.5 17H64.5C66.433 17 68 15.433 68 13.5C68 11.567 66.433 10 64.5 10Z" fill="black"/>
</svg>
