<svg width="75" height="75" viewBox="0 0 75 75" fill="none" xmlns="http://www.w3.org/2000/svg">
<rect width="75" height="75" fill="white"/>
<path d="M75 11L0 11L0 64H75V11Z" fill="#E8DDFF"/>
<path d="M48.5 20H10.5C9.11929 20 8 21.1193 8 22.5C8 23.8807 9.11929 25 10.5 25H48.5C49.8807 25 51 23.8807 51 22.5C51 21.1193 49.8807 20 48.5 20Z" fill="black"/>
<path d="M19.2 42H9.8C8.80589 42 8 42.8059 8 43.8C8 44.7941 8.80589 45.6 9.8 45.6H19.2C20.1941 45.6 21 44.7941 21 43.8C21 42.8059 20.1941 42 19.2 42Z" fill="black"/>
<path d="M40 28H10C8.89543 28 8 28.8954 8 30C8 31.1046 8.89543 32 10 32H40C41.1046 32 42 31.1046 42 30C42 28.8954 41.1046 28 40 28Z" fill="black"/>
<rect x="8" y="48" width="41" height="6" fill="white"/>
</svg>
