<svg width="75" height="75" viewBox="0 0 75 75" fill="none" xmlns="http://www.w3.org/2000/svg">
<rect width="75" height="75" fill="white"/>
<path d="M25 44H4V45H25V44Z" fill="#783DF6"/>
<path d="M25 30H4V44H25V30Z" fill="#F6F6F6"/>
<path d="M17.5 33H6.5C6.22386 33 6 33.2239 6 33.5C6 33.7761 6.22386 34 6.5 34H17.5C17.7761 34 18 33.7761 18 33.5C18 33.2239 17.7761 33 17.5 33Z" fill="black"/>
<path d="M22.5 36H6.5C6.22386 36 6 36.2239 6 36.5C6 36.7761 6.22386 37 6.5 37H22.5C22.7761 37 23 36.7761 23 36.5C23 36.2239 22.7761 36 22.5 36Z" fill="#746D6D"/>
<path d="M22.5 38H6.5C6.22386 38 6 38.2239 6 38.5C6 38.7761 6.22386 39 6.5 39H22.5C22.7761 39 23 38.7761 23 38.5C23 38.2239 22.7761 38 22.5 38Z" fill="#746D6D"/>
<path d="M12.5 40H6.5C6.22386 40 6 40.2239 6 40.5C6 40.7761 6.22386 41 6.5 41H12.5C12.7761 41 13 40.7761 13 40.5C13 40.2239 12.7761 40 12.5 40Z" fill="#746D6D"/>
<path d="M25 27H4V28H25V27Z" fill="#783DF6"/>
<path d="M25 13H4V27H25V13Z" fill="#F6F6F6"/>
<path d="M17.5 16H6.5C6.22386 16 6 16.2239 6 16.5C6 16.7761 6.22386 17 6.5 17H17.5C17.7761 17 18 16.7761 18 16.5C18 16.2239 17.7761 16 17.5 16Z" fill="black"/>
<path d="M22.5 19H6.5C6.22386 19 6 19.2239 6 19.5C6 19.7761 6.22386 20 6.5 20H22.5C22.7761 20 23 19.7761 23 19.5C23 19.2239 22.7761 19 22.5 19Z" fill="#746D6D"/>
<path d="M22.5 21H6.5C6.22386 21 6 21.2239 6 21.5C6 21.7761 6.22386 22 6.5 22H22.5C22.7761 22 23 21.7761 23 21.5C23 21.2239 22.7761 21 22.5 21Z" fill="#746D6D"/>
<path d="M12.5 23H6.5C6.22386 23 6 23.2239 6 23.5C6 23.7761 6.22386 24 6.5 24H12.5C12.7761 24 13 23.7761 13 23.5C13 23.2239 12.7761 23 12.5 23Z" fill="#746D6D"/>
<path d="M25 61H4V62H25V61Z" fill="#783DF6"/>
<path d="M25 47H4V61H25V47Z" fill="#F6F6F6"/>
<path d="M17.5 50H6.5C6.22386 50 6 50.2239 6 50.5C6 50.7761 6.22386 51 6.5 51H17.5C17.7761 51 18 50.7761 18 50.5C18 50.2239 17.7761 50 17.5 50Z" fill="black"/>
<path d="M22.5 53H6.5C6.22386 53 6 53.2239 6 53.5C6 53.7761 6.22386 54 6.5 54H22.5C22.7761 54 23 53.7761 23 53.5C23 53.2239 22.7761 53 22.5 53Z" fill="#746D6D"/>
<path d="M22.5 55H6.5C6.22386 55 6 55.2239 6 55.5C6 55.7761 6.22386 56 6.5 56H22.5C22.7761 56 23 55.7761 23 55.5C23 55.2239 22.7761 55 22.5 55Z" fill="#746D6D"/>
<path d="M12.5 57H6.5C6.22386 57 6 57.2239 6 57.5C6 57.7761 6.22386 58 6.5 58H12.5C12.7761 58 13 57.7761 13 57.5C13 57.2239 12.7761 57 12.5 57Z" fill="#746D6D"/>
<path d="M48 44H27V45H48V44Z" fill="#783DF6"/>
<path d="M48 30H27V44H48V30Z" fill="#F6F6F6"/>
<path d="M40.5 33H29.5C29.2239 33 29 33.2239 29 33.5C29 33.7761 29.2239 34 29.5 34H40.5C40.7761 34 41 33.7761 41 33.5C41 33.2239 40.7761 33 40.5 33Z" fill="black"/>
<path d="M45.5 36H29.5C29.2239 36 29 36.2239 29 36.5C29 36.7761 29.2239 37 29.5 37H45.5C45.7761 37 46 36.7761 46 36.5C46 36.2239 45.7761 36 45.5 36Z" fill="#746D6D"/>
<path d="M45.5 38H29.5C29.2239 38 29 38.2239 29 38.5C29 38.7761 29.2239 39 29.5 39H45.5C45.7761 39 46 38.7761 46 38.5C46 38.2239 45.7761 38 45.5 38Z" fill="#746D6D"/>
<path d="M35.5 40H29.5C29.2239 40 29 40.2239 29 40.5C29 40.7761 29.2239 41 29.5 41H35.5C35.7761 41 36 40.7761 36 40.5C36 40.2239 35.7761 40 35.5 40Z" fill="#746D6D"/>
<path d="M48 27H27V28H48V27Z" fill="#783DF6"/>
<path d="M48 13H27V27H48V13Z" fill="#F6F6F6"/>
<path d="M40.5 16H29.5C29.2239 16 29 16.2239 29 16.5C29 16.7761 29.2239 17 29.5 17H40.5C40.7761 17 41 16.7761 41 16.5C41 16.2239 40.7761 16 40.5 16Z" fill="black"/>
<path d="M45.5 19H29.5C29.2239 19 29 19.2239 29 19.5C29 19.7761 29.2239 20 29.5 20H45.5C45.7761 20 46 19.7761 46 19.5C46 19.2239 45.7761 19 45.5 19Z" fill="#746D6D"/>
<path d="M45.5 21H29.5C29.2239 21 29 21.2239 29 21.5C29 21.7761 29.2239 22 29.5 22H45.5C45.7761 22 46 21.7761 46 21.5C46 21.2239 45.7761 21 45.5 21Z" fill="#746D6D"/>
<path d="M35.5 23H29.5C29.2239 23 29 23.2239 29 23.5C29 23.7761 29.2239 24 29.5 24H35.5C35.7761 24 36 23.7761 36 23.5C36 23.2239 35.7761 23 35.5 23Z" fill="#746D6D"/>
<path d="M48 61H27V62H48V61Z" fill="#783DF6"/>
<path d="M48 47H27V61H48V47Z" fill="#F6F6F6"/>
<path d="M40.5 50H29.5C29.2239 50 29 50.2239 29 50.5C29 50.7761 29.2239 51 29.5 51H40.5C40.7761 51 41 50.7761 41 50.5C41 50.2239 40.7761 50 40.5 50Z" fill="black"/>
<path d="M45.5 53H29.5C29.2239 53 29 53.2239 29 53.5C29 53.7761 29.2239 54 29.5 54H45.5C45.7761 54 46 53.7761 46 53.5C46 53.2239 45.7761 53 45.5 53Z" fill="#746D6D"/>
<path d="M45.5 55H29.5C29.2239 55 29 55.2239 29 55.5C29 55.7761 29.2239 56 29.5 56H45.5C45.7761 56 46 55.7761 46 55.5C46 55.2239 45.7761 55 45.5 55Z" fill="#746D6D"/>
<path d="M35.5 57H29.5C29.2239 57 29 57.2239 29 57.5C29 57.7761 29.2239 58 29.5 58H35.5C35.7761 58 36 57.7761 36 57.5C36 57.2239 35.7761 57 35.5 57Z" fill="#746D6D"/>
<path d="M71 44H50V45H71V44Z" fill="#783DF6"/>
<path d="M71 30H50V44H71V30Z" fill="#F6F6F6"/>
<path d="M63.5 33H52.5C52.2239 33 52 33.2239 52 33.5C52 33.7761 52.2239 34 52.5 34H63.5C63.7761 34 64 33.7761 64 33.5C64 33.2239 63.7761 33 63.5 33Z" fill="black"/>
<path d="M68.5 36H52.5C52.2239 36 52 36.2239 52 36.5C52 36.7761 52.2239 37 52.5 37H68.5C68.7761 37 69 36.7761 69 36.5C69 36.2239 68.7761 36 68.5 36Z" fill="#746D6D"/>
<path d="M68.5 38H52.5C52.2239 38 52 38.2239 52 38.5C52 38.7761 52.2239 39 52.5 39H68.5C68.7761 39 69 38.7761 69 38.5C69 38.2239 68.7761 38 68.5 38Z" fill="#746D6D"/>
<path d="M58.5 40H52.5C52.2239 40 52 40.2239 52 40.5C52 40.7761 52.2239 41 52.5 41H58.5C58.7761 41 59 40.7761 59 40.5C59 40.2239 58.7761 40 58.5 40Z" fill="#746D6D"/>
<path d="M71 27H50V28H71V27Z" fill="#783DF6"/>
<path d="M71 13H50V27H71V13Z" fill="#F6F6F6"/>
<path d="M63.5 16H52.5C52.2239 16 52 16.2239 52 16.5C52 16.7761 52.2239 17 52.5 17H63.5C63.7761 17 64 16.7761 64 16.5C64 16.2239 63.7761 16 63.5 16Z" fill="black"/>
<path d="M68.5 19H52.5C52.2239 19 52 19.2239 52 19.5C52 19.7761 52.2239 20 52.5 20H68.5C68.7761 20 69 19.7761 69 19.5C69 19.2239 68.7761 19 68.5 19Z" fill="#746D6D"/>
<path d="M68.5 21H52.5C52.2239 21 52 21.2239 52 21.5C52 21.7761 52.2239 22 52.5 22H68.5C68.7761 22 69 21.7761 69 21.5C69 21.2239 68.7761 21 68.5 21Z" fill="#746D6D"/>
<path d="M58.5 23H52.5C52.2239 23 52 23.2239 52 23.5C52 23.7761 52.2239 24 52.5 24H58.5C58.7761 24 59 23.7761 59 23.5C59 23.2239 58.7761 23 58.5 23Z" fill="#746D6D"/>
<path d="M71 61H50V62H71V61Z" fill="#783DF6"/>
<path d="M71 47H50V61H71V47Z" fill="#F6F6F6"/>
<path d="M63.5 50H52.5C52.2239 50 52 50.2239 52 50.5C52 50.7761 52.2239 51 52.5 51H63.5C63.7761 51 64 50.7761 64 50.5C64 50.2239 63.7761 50 63.5 50Z" fill="black"/>
<path d="M68.5 53H52.5C52.2239 53 52 53.2239 52 53.5C52 53.7761 52.2239 54 52.5 54H68.5C68.7761 54 69 53.7761 69 53.5C69 53.2239 68.7761 53 68.5 53Z" fill="#746D6D"/>
<path d="M68.5 55H52.5C52.2239 55 52 55.2239 52 55.5C52 55.7761 52.2239 56 52.5 56H68.5C68.7761 56 69 55.7761 69 55.5C69 55.2239 68.7761 55 68.5 55Z" fill="#746D6D"/>
<path d="M58.5 57H52.5C52.2239 57 52 57.2239 52 57.5C52 57.7761 52.2239 58 52.5 58H58.5C58.7761 58 59 57.7761 59 57.5C59 57.2239 58.7761 57 58.5 57Z" fill="#746D6D"/>
</svg>
