<svg width="75" height="75" viewBox="0 0 75 75" fill="none" xmlns="http://www.w3.org/2000/svg">
<rect width="75" height="75" fill="white"/>
<path d="M5.94659 7L5.94659 68L8.54234 68L8.54234 7L5.94659 7Z" fill="#783DF6"/>
<path d="M55.0534 49.8298C54.91 52.0364 54.2764 54.1832 53.1987 56.114C52.121 58.0448 50.6264 59.7111 48.8236 60.9915C48.2728 61.4046 47.5806 61.5819 46.899 61.4846C46.2175 61.3872 45.6026 61.0231 45.1895 60.4724C44.7765 59.9216 44.5991 59.2293 44.6965 58.5478C44.7938 57.8663 45.1579 57.2514 45.7087 56.8383C47.2575 55.7146 48.4693 54.1886 49.213 52.4255H45.9683C45.2798 52.4255 44.6196 52.1521 44.1328 51.6653C43.646 51.1785 43.3725 50.5182 43.3725 49.8298C43.3725 49.1414 43.646 48.4811 44.1328 47.9943C44.6196 47.5075 45.2798 47.2341 45.9683 47.2341H52.4576C53.1461 47.2341 53.8063 47.5075 54.2931 47.9943C54.7799 48.4811 55.0534 49.1414 55.0534 49.8298ZM65.4364 47.2341H58.947C58.2586 47.2341 57.5983 47.5075 57.1115 47.9943C56.6247 48.4811 56.3512 49.1414 56.3512 49.8298C56.3512 50.5182 56.6247 51.1785 57.1115 51.6653C57.5983 52.1521 58.2586 52.4255 58.947 52.4255H62.1917C61.4481 54.1886 60.2362 55.7146 58.6874 56.8383C58.4147 57.0428 58.185 57.2991 58.0113 57.5924C57.8376 57.8857 57.7234 58.2104 57.6752 58.5478C57.627 58.8853 57.6457 59.2289 57.7303 59.5591C57.8149 59.8893 57.9637 60.1997 58.1683 60.4724C58.3728 60.7451 58.629 60.9748 58.9224 61.1485C59.2157 61.3222 59.5403 61.4364 59.8778 61.4846C60.2152 61.5328 60.5589 61.514 60.8891 61.4294C61.2193 61.3448 61.5296 61.196 61.8023 60.9915C63.6051 59.7111 65.0997 58.0448 66.1774 56.114C67.2551 54.1832 67.8887 52.0364 68.0321 49.8298C68.0321 49.1414 67.7586 48.4811 67.2718 47.9943C66.785 47.5075 66.1248 47.2341 65.4364 47.2341ZM30.3938 25.1702H36.8832C37.5716 25.1702 38.2318 24.8967 38.7186 24.4099C39.2054 23.9232 39.4789 23.2629 39.4789 22.5745C39.4789 21.886 39.2054 21.2258 38.7186 20.739C38.2318 20.2522 37.5716 19.9787 36.8832 19.9787H33.6385C34.3821 18.2157 35.5939 16.6896 37.1427 15.566C37.6935 15.1529 38.0576 14.538 38.1549 13.8565C38.2523 13.175 38.0749 12.4827 37.6619 11.9319C37.2488 11.3812 36.6339 11.0171 35.9524 10.9197C35.2709 10.8224 34.5786 10.9997 34.0278 11.4128C32.2251 12.6932 30.7304 14.3594 29.6528 16.2903C28.5751 18.2211 27.9415 20.3679 27.7981 22.5745C27.7981 23.2629 28.0715 23.9232 28.5583 24.4099C29.0451 24.8967 29.7054 25.1702 30.3938 25.1702ZM17.4151 25.1702H23.9044C24.5929 25.1702 25.2531 24.8967 25.7399 24.4099C26.2267 23.9232 26.5002 23.2629 26.5002 22.5745C26.5002 21.886 26.2267 21.2258 25.7399 20.739C25.2531 20.2522 24.5929 19.9787 23.9044 19.9787H20.6598C21.4034 18.2157 22.6152 16.6896 24.164 15.566C24.4367 15.3614 24.6665 15.1052 24.8401 14.8119C25.0138 14.5186 25.128 14.1939 25.1762 13.8565C25.2244 13.519 25.2057 13.1754 25.1211 12.8452C25.0365 12.5149 24.8877 12.2046 24.6832 11.9319C24.4786 11.6592 24.2224 11.4295 23.9291 11.2558C23.6358 11.0821 23.3111 10.9679 22.9737 10.9197C22.6362 10.8715 22.2926 10.8902 21.9624 10.9748C21.6321 11.0594 21.3218 11.2082 21.0491 11.4128C19.2463 12.6932 17.7517 14.3594 16.674 16.2903C15.5964 18.2211 14.9628 20.3679 14.8193 22.5745C14.8193 23.2629 15.0928 23.9232 15.5796 24.4099C16.0664 24.8967 16.7266 25.1702 17.4151 25.1702ZM45.9683 25.1702H65.4364C66.1248 25.1702 66.785 24.8967 67.2718 24.4099C67.7586 23.9232 68.0321 23.2629 68.0321 22.5745C68.0321 21.886 67.7586 21.2258 67.2718 20.739C66.785 20.2522 66.1248 19.9787 65.4364 19.9787H45.9683C45.2798 19.9787 44.6196 20.2522 44.1328 20.739C43.646 21.2258 43.3725 21.886 43.3725 22.5745C43.3725 23.2629 43.646 23.9232 44.1328 24.4099C44.6196 24.8967 45.2798 25.1702 45.9683 25.1702ZM65.4364 29.0638H17.4151C16.7266 29.0638 16.0664 29.3373 15.5796 29.8241C15.0928 30.3109 14.8193 30.9712 14.8193 31.6596C14.8193 32.348 15.0928 33.0083 15.5796 33.4951C16.0664 33.9819 16.7266 34.2553 17.4151 34.2553H65.4364C66.1248 34.2553 66.785 33.9819 67.2718 33.4951C67.7586 33.0083 68.0321 32.348 68.0321 31.6596C68.0321 30.9712 67.7586 30.3109 67.2718 29.8241C66.785 29.3373 66.1248 29.0638 65.4364 29.0638ZM65.4364 38.1489H17.4151C16.7266 38.1489 16.0664 38.4224 15.5796 38.9092C15.0928 39.396 14.8193 40.0563 14.8193 40.7447C14.8193 41.4331 15.0928 42.0934 15.5796 42.5802C16.0664 43.067 16.7266 43.3404 17.4151 43.3404H65.4364C66.1248 43.3404 66.785 43.067 67.2718 42.5802C67.7586 42.0934 68.0321 41.4331 68.0321 40.7447C68.0321 40.0563 67.7586 39.396 67.2718 38.9092C66.785 38.4224 66.1248 38.1489 65.4364 38.1489ZM36.8832 47.2341H17.4151C16.7266 47.2341 16.0664 47.5075 15.5796 47.9943C15.0928 48.4811 14.8193 49.1414 14.8193 49.8298C14.8193 50.5182 15.0928 51.1785 15.5796 51.6653C16.0664 52.1521 16.7266 52.4255 17.4151 52.4255H36.8832C37.5716 52.4255 38.2318 52.1521 38.7186 51.6653C39.2054 51.1785 39.4789 50.5182 39.4789 49.8298C39.4789 49.1414 39.2054 48.4811 38.7186 47.9943C38.2318 47.5075 37.5716 47.2341 36.8832 47.2341Z" fill="black"/>
</svg>
