<svg width="75" height="75" viewBox="0 0 75 75" fill="none" xmlns="http://www.w3.org/2000/svg">
<rect width="75" height="75" fill="white"/>
<path d="M75 11L0 11L0 64H75V11Z" fill="#F6F6F6"/>
<path d="M33.2 40.3585H23.8C22.8059 40.3585 22 41.1644 22 42.1585C22 43.1526 22.8059 43.9585 23.8 43.9585H33.2C34.1941 43.9585 35 43.1526 35 42.1585C35 41.1644 34.1941 40.3585 33.2 40.3585Z" fill="black"/>
<path d="M33.2 32H23.8C22.8059 32 22 32.8059 22 33.8C22 34.7941 22.8059 35.6 23.8 35.6H33.2C34.1941 35.6 35 34.7941 35 33.8C35 32.8059 34.1941 32 33.2 32Z" fill="black"/>
<path d="M33.2 49.8679H23.8C22.8059 49.8679 22 50.6738 22 51.6679C22 52.662 22.8059 53.4679 23.8 53.4679H33.2C34.1941 53.4679 35 52.662 35 51.6679C35 50.6738 34.1941 49.8679 33.2 49.8679Z" fill="black"/>
<path d="M62.5 20H24.5C23.1193 20 22 21.1193 22 22.5C22 23.8807 23.1193 25 24.5 25H62.5C63.8807 25 65 23.8807 65 22.5C65 21.1193 63.8807 20 62.5 20Z" fill="black"/>
<path d="M6.59003 23.48C7.31003 23.48 8.01003 23.42 8.69003 23.3C9.37003 23.18 9.98003 22.98 10.52 22.7C11.08 22.42 11.55 22.06 11.93 21.62C12.33 21.18 12.59 20.64 12.71 20H15.5V41H11.75V26.18H6.59003V23.48Z" fill="#783DF6"/>
<path fill-rule="evenodd" clip-rule="evenodd" d="M40 32H63V55H40V32ZM58.6579 36H48.2326C47.7779 36 47.4074 36.3705 47.4074 36.8253V38.7621C47.4074 38.9305 47.559 39.0821 47.7274 39.0821C47.8958 39.0821 48.0474 38.9305 48.0474 38.7621V36.8253C48.0474 36.7242 48.1316 36.64 48.2326 36.64H58.6579C58.759 36.64 58.8432 36.7242 58.8432 36.8253V47.2505C58.8432 47.3516 58.759 47.4358 58.6579 47.4358H56.7379C56.5695 47.4358 56.4179 47.5874 56.4179 47.7558C56.4179 47.9242 56.5695 48.0758 56.7379 48.0758H58.6579C59.1126 48.0758 59.4832 47.7053 59.4832 47.2505V36.8253C59.4832 36.3705 59.1126 36 58.6579 36ZM52.9147 39.8737H54.6158C55.1716 39.8737 55.6263 40.3116 55.6263 40.8674V51.0063C55.6263 51.5453 55.1884 52 54.6326 52H52.9316H46.2116H44.4937C43.9547 52 43.5 51.5621 43.5 51.0063V40.8674C43.5 40.3284 43.9379 39.8737 44.4937 39.8737H46.2116H52.9147ZM52.5947 45.7684V40.5137H46.5316V45.7684H52.5947ZM44.1232 40.8674V51.0063C44.1232 51.1916 44.2916 51.36 44.4937 51.36H45.8747V40.5137H44.4768C44.2916 40.5137 44.1232 40.6653 44.1232 40.8674ZM46.5316 46.4084V51.36H52.6116V46.4084H46.5316ZM54.6326 51.36C54.8179 51.36 54.9863 51.2084 54.9863 51.0063V40.8674C54.9863 40.6821 54.8347 40.5137 54.6326 40.5137H53.2516V51.36H54.6326ZM45.0832 42.2484C45.6053 42.2484 45.6053 41.4568 45.0832 41.4568C44.561 41.4568 44.5779 42.2484 45.0832 42.2484ZM45.0832 43.1242C44.5611 43.1242 44.5611 43.9158 45.0832 43.9158C45.6053 43.9158 45.6053 43.1242 45.0832 43.1242ZM45.0832 44.7916C44.5611 44.7916 44.5611 45.5832 45.0832 45.5832C45.6053 45.5832 45.6053 44.7916 45.0832 44.7916ZM45.0832 46.4589C44.5611 46.4589 44.5611 47.2505 45.0832 47.2505C45.6053 47.2505 45.6053 46.4589 45.0832 46.4589ZM45.0832 48.1263C44.5611 48.1263 44.5611 48.9179 45.0832 48.9179C45.6053 48.9347 45.6053 48.1263 45.0832 48.1263ZM45.0832 49.7937C44.5611 49.7937 44.5611 50.5853 45.0832 50.5853C45.6053 50.6021 45.6053 49.7937 45.0832 49.7937ZM54.0263 41.4568C53.5042 41.4568 53.5042 42.2484 54.0263 42.2484C54.5484 42.2484 54.5484 41.4568 54.0263 41.4568ZM54.0263 43.1242C53.5042 43.1242 53.5042 43.9158 54.0263 43.9158C54.5484 43.9158 54.5484 43.1242 54.0263 43.1242ZM54.0263 44.7916C53.5042 44.7916 53.5042 45.5832 54.0263 45.5832C54.5484 45.5832 54.5484 44.7916 54.0263 44.7916ZM54.0263 46.4589C53.5042 46.4589 53.5042 47.2505 54.0263 47.2505C54.5484 47.2505 54.5484 46.4589 54.0263 46.4589ZM54.0263 48.1263C53.5042 48.1263 53.5042 48.9179 54.0263 48.9179C54.5484 48.9347 54.5484 48.1263 54.0263 48.1263ZM54.0263 49.7937C53.5042 49.7937 53.5042 50.5853 54.0263 50.5853C54.5484 50.6021 54.5484 49.7937 54.0263 49.7937Z" fill="black"/>
</svg>
