<svg width="75" height="75" viewBox="0 0 75 75" fill="none" xmlns="http://www.w3.org/2000/svg">
<rect width="75" height="75" fill="white"/>
<path d="M65.6981 18.3585H42.6793C41.408 18.3585 40.3774 19.3891 40.3774 20.6604C40.3774 21.9317 41.408 22.9623 42.6793 22.9623H65.6981C66.9694 22.9623 68 21.9317 68 20.6604C68 19.3891 66.9694 18.3585 65.6981 18.3585Z" fill="black" fill-opacity="0.6"/>
<path d="M65.6981 40.3773H9.30189C8.03059 40.3773 7 41.4079 7 42.6792C7 43.9505 8.03059 44.9811 9.30189 44.9811H65.6981C66.9694 44.9811 68 43.9505 68 42.6792C68 41.4079 66.9694 40.3773 65.6981 40.3773Z" fill="black" fill-opacity="0.6"/>
<path d="M65.6981 49.8868H9.30189C8.03059 49.8868 7 50.9174 7 52.1887C7 53.46 8.03059 54.4906 9.30189 54.4906H65.6981C66.9694 54.4906 68 53.46 68 52.1887C68 50.9174 66.9694 49.8868 65.6981 49.8868Z" fill="black" fill-opacity="0.6"/>
<path d="M65.6981 10H42.6793C41.408 10 40.3774 11.0306 40.3774 12.3019C40.3774 13.5732 41.408 14.6038 42.6793 14.6038H65.6981C66.9694 14.6038 68 13.5732 68 12.3019C68 11.0306 66.9694 10 65.6981 10Z" fill="black" fill-opacity="0.6"/>
<path d="M65.6981 27.8679H42.6793C41.408 27.8679 40.3774 28.8985 40.3774 30.1698C40.3774 31.4411 41.408 32.4717 42.6793 32.4717H65.6981C66.9694 32.4717 68 31.4411 68 30.1698C68 28.8985 66.9694 27.8679 65.6981 27.8679Z" fill="black" fill-opacity="0.6"/>
<path d="M34.6226 59.3962H9.30189C8.03059 59.3962 7 60.4268 7 61.6981C7 62.9694 8.03059 64 9.30189 64H34.6226C35.8939 64 36.9245 62.9694 36.9245 61.6981C36.9245 60.4268 35.8939 59.3962 34.6226 59.3962Z" fill="black" fill-opacity="0.6"/>
<path d="M30.8333 23.4062L27.7477 20.3207L19.555 28.5134L15.1927 24.151L7 32.3437V34.4717H30.8333V23.4062Z" fill="black"/>
<path d="M15.1927 21.1719L19.555 25.5342L27.7477 17.3415L30.8333 20.4271V10H7V29.2582L15.1927 21.1719ZM12.6391 12.0216C14.7671 12.0216 16.5759 13.8304 16.5759 15.9583C16.5759 18.0863 14.7671 19.8951 12.6391 19.8951C10.5112 19.8951 8.70238 18.0863 8.70238 15.9583C8.70238 13.8304 10.5112 12.0216 12.6391 12.0216Z" fill="black"/>
<path d="M12.6391 17.7671C13.6381 17.7671 14.4479 16.9573 14.4479 15.9583C14.4479 14.9594 13.6381 14.1496 12.6391 14.1496C11.6401 14.1496 10.8303 14.9594 10.8303 15.9583C10.8303 16.9573 11.6401 17.7671 12.6391 17.7671Z" fill="black"/>
</svg>
