<svg width="75" height="75" viewBox="0 0 75 75" fill="none" xmlns="http://www.w3.org/2000/svg">
<rect width="75" height="75" fill="white"/>
<path d="M65.6302 42.3773H9.23396C7.96266 42.3773 6.93207 43.4079 6.93207 44.6792C6.93207 45.9505 7.96266 46.9811 9.23396 46.9811H65.6302C66.9015 46.9811 67.9321 45.9505 67.9321 44.6792C67.9321 43.4079 66.9015 42.3773 65.6302 42.3773Z" fill="black" fill-opacity="0.6"/>
<path d="M65.6302 51.8868H9.23396C7.96266 51.8868 6.93207 52.9174 6.93207 54.1887C6.93207 55.46 7.96266 56.4906 9.23396 56.4906H65.6302C66.9015 56.4906 67.9321 55.46 67.9321 54.1887C67.9321 52.9174 66.9015 51.8868 65.6302 51.8868Z" fill="black" fill-opacity="0.6"/>
<path d="M34.5547 61.3962H9.23396C7.96266 61.3962 6.93207 62.4268 6.93207 63.6981C6.93207 64.9694 7.96266 66 9.23396 66H34.5547C35.826 66 36.8566 64.9694 36.8566 63.6981C36.8566 62.4268 35.826 61.3962 34.5547 61.3962Z" fill="black" fill-opacity="0.6"/>
<path d="M67.9679 10V34.4717H7.93207V10H67.9679Z" stroke="black" stroke-width="2"/>
<path d="M41.8232 23.8921C41.3141 23.5982 40.7211 23.52 40.1532 23.6721C39.7603 23.7775 39.4137 23.9862 39.1391 24.2725L36.3036 22.6354C36.3673 22.4282 36.4022 22.211 36.4022 21.9888C36.4021 21.7701 36.3681 21.5532 36.304 21.3452L39.1271 19.7151C39.2709 19.8673 39.4366 20.0006 39.6224 20.1078C40.1315 20.4019 40.7246 20.4798 41.2924 20.3277C41.8603 20.1754 42.3349 19.8114 42.6287 19.3023C42.822 18.968 42.924 18.5879 42.924 18.2034C42.924 17.4188 42.5021 16.6877 41.823 16.2959C41.314 16.0019 40.7209 15.9238 40.1531 16.0759C39.5854 16.228 39.1108 16.5922 38.8168 17.1014C38.6237 17.4357 38.5218 17.8158 38.5218 18.2002C38.5218 18.4294 38.5587 18.6536 38.6264 18.8664L35.8113 20.4921C35.5328 20.1915 35.1763 19.9732 34.7707 19.8646C34.2029 19.7124 33.6097 19.7904 33.1007 20.0845C32.4217 20.4764 32 21.2074 32 21.9919C32 22.3763 32.1021 22.7563 32.2951 23.0907C32.589 23.5999 33.0636 23.964 33.6315 24.1163C34.1993 24.2684 34.7924 24.1904 35.3015 23.8964C35.4935 23.7856 35.6639 23.6471 35.811 23.4887L38.6309 25.1165C38.5595 25.3357 38.5219 25.5652 38.5219 25.7964C38.5219 26.5813 38.9436 27.312 39.6225 27.7041C40.1317 27.9981 40.7247 28.0762 41.2925 27.9239C41.8605 27.7716 42.3351 27.4075 42.6289 26.8985C42.8221 26.5641 42.9241 26.184 42.9241 25.7997C42.9241 25.015 42.5023 24.2841 41.8232 23.8921Z" fill="black"/>
</svg>
