<svg width="75" height="75" viewBox="0 0 75 75" fill="none" xmlns="http://www.w3.org/2000/svg">
<rect width="75" height="75" fill="white"/>
<path d="M65.6302 42.3773H9.23396C7.96266 42.3773 6.93207 43.4079 6.93207 44.6792C6.93207 45.9505 7.96266 46.9811 9.23396 46.9811H65.6302C66.9015 46.9811 67.9321 45.9505 67.9321 44.6792C67.9321 43.4079 66.9015 42.3773 65.6302 42.3773Z" fill="black" fill-opacity="0.6"/>
<path d="M65.6302 51.8868H9.23396C7.96266 51.8868 6.93207 52.9174 6.93207 54.1887C6.93207 55.46 7.96266 56.4906 9.23396 56.4906H65.6302C66.9015 56.4906 67.9321 55.46 67.9321 54.1887C67.9321 52.9174 66.9015 51.8868 65.6302 51.8868Z" fill="black" fill-opacity="0.6"/>
<path d="M34.5547 61.3962H9.23396C7.96266 61.3962 6.93207 62.4268 6.93207 63.6981C6.93207 64.9694 7.96266 66 9.23396 66H34.5547C35.826 66 36.8566 64.9694 36.8566 63.6981C36.8566 62.4268 35.826 61.3962 34.5547 61.3962Z" fill="black" fill-opacity="0.6"/>
<path d="M6.93207 35.4717H68.9679V9H6.93207L6.93207 35.4717ZM32.5981 15.4453L45.4887 22.9264L32.5981 30.4075V15.4453Z" fill="black"/>
<path d="M34.9 19.3585V26.3792L40.8849 22.8113L34.9 19.3585Z" fill="black"/>
</svg>
