<svg width="75" height="75" viewBox="0 0 75 75" fill="none" xmlns="http://www.w3.org/2000/svg">
<rect width="75" height="75" fill="white"/>
<rect x="7" y="23" width="61" height="35" rx="2" fill="#F1E4BB"/>
<rect x="7" y="17" width="39" height="13" rx="2" fill="#E2CA76"/>
<path d="M55 42H14C12.8954 42 12 42.8954 12 44C12 45.1046 12.8954 46 14 46H55C56.1046 46 57 45.1046 57 44C57 42.8954 56.1046 42 55 42Z" fill="black" fill-opacity="0.6"/>
<path d="M55 35H14C12.8954 35 12 35.8954 12 37C12 38.1046 12.8954 39 14 39H55C56.1046 39 57 38.1046 57 37C57 35.8954 56.1046 35 55 35Z" fill="black" fill-opacity="0.6"/>
<path d="M39.9245 49.0189H14C12.8954 49.0189 12 49.9143 12 51.0189C12 52.1234 12.8954 53.0189 14 53.0189H39.9245C41.0291 53.0189 41.9245 52.1234 41.9245 51.0189C41.9245 49.9143 41.0291 49.0189 39.9245 49.0189Z" fill="black" fill-opacity="0.6"/>
<path d="M39.5 21H13.5C12.1193 21 11 22.1193 11 23.5C11 24.8807 12.1193 26 13.5 26H39.5C40.8807 26 42 24.8807 42 23.5C42 22.1193 40.8807 21 39.5 21Z" fill="black" fill-opacity="0.83"/>
</svg>
