<svg width="75" height="75" viewBox="0 0 75 75" fill="none" xmlns="http://www.w3.org/2000/svg">
<rect width="75" height="75" fill="white"/>
<path d="M65.6981 51.5094H9.30189C8.03059 51.5094 7 52.54 7 53.8113C7 55.0826 8.03059 56.1132 9.30189 56.1132H65.6981C66.9694 56.1132 68 55.0826 68 53.8113C68 52.54 66.9694 51.5094 65.6981 51.5094Z" fill="black" fill-opacity="0.6"/>
<path d="M34.6226 61.0189H9.30189C8.03059 61.0189 7 62.0494 7 63.3207C7 64.592 8.03059 65.6226 9.30189 65.6226H34.6226C35.8939 65.6226 36.9245 64.592 36.9245 63.3207C36.9245 62.0494 35.8939 61.0189 34.6226 61.0189Z" fill="black" fill-opacity="0.6"/>
<path d="M65.6981 10H9.30189C8.03059 10 7 11.0306 7 12.3019C7 13.5732 8.03059 14.6038 9.30189 14.6038H65.6981C66.9694 14.6038 68 13.5732 68 12.3019C68 11.0306 66.9694 10 65.6981 10Z" fill="black" fill-opacity="0.6"/>
<path d="M65.6981 19.5094H9.30189C8.03059 19.5094 7 20.54 7 21.8113C7 23.0826 8.03059 24.1132 9.30189 24.1132H65.6981C66.9694 24.1132 68 23.0826 68 21.8113C68 20.54 66.9694 19.5094 65.6981 19.5094Z" fill="black" fill-opacity="0.6"/>
<rect x="7" y="31" width="43" height="14" rx="4" fill="#05873A"/>
</svg>
