<svg width="1272" height="278" viewBox="0 0 1272 278" fill="none" xmlns="http://www.w3.org/2000/svg">
<path d="M84.1536 78.6634C88.7616 78.6634 93.338 78.8213 97.9144 79.0423V65.5253C100.755 57.5035 106.152 51.2819 112.748 48.5659C119.345 51.3135 124.71 57.5351 127.582 65.5253V82.1058C154.126 86.3062 179.154 94.2648 202.005 105.35V12.8784H201.847C201.5 11.4257 200.616 10.0045 199.29 8.70964V14.047L195.976 11.5836V6.21468C190.011 2.61435 180.164 0.21413 168.96 0.119385V7.54111H164.32V0.214132C154.788 0.68786 146.456 2.80384 141.059 5.89886V12.3415L138.597 14.8049V7.54111C136.483 9.15178 135.126 10.9835 134.652 12.91H134.494V17.8368H130.77V25.6059H124.331V17.8368H101.702V25.6059H95.2632V17.8368H91.034V12.91H90.8762C90.4028 10.9835 89.0456 9.18337 86.931 7.54111V14.8049L84.4692 12.3415V5.89886C79.0406 2.80384 70.7399 0.656278 61.2083 0.214132V7.54111H56.5687V0.119385C45.3643 0.21413 35.5171 2.61435 29.5519 6.21468V11.5836L26.238 14.047V8.70964C24.9124 10.0045 24.0287 11.4257 23.6815 12.8784H23.5237V85.3903C42.9025 81.032 63.2282 78.6634 84.1536 78.6634Z" fill="#3C3C3B"/>
<path d="M344.221 136.142C365.661 136.142 383.042 118.75 383.042 97.2965C383.042 75.8427 365.661 58.4509 344.221 58.4509C322.781 58.4509 305.4 75.8427 305.4 97.2965C305.4 118.75 322.781 136.142 344.221 136.142Z" fill="#3CAA36"/>
<path d="M406.429 136.805C421.368 136.805 433.477 124.688 433.477 109.74C433.477 94.7918 421.368 82.6741 406.429 82.6741C391.491 82.6741 379.381 94.7918 379.381 109.74C379.381 124.688 391.491 136.805 406.429 136.805Z" fill="#3CAA36"/>
<path d="M274.091 22.1634C276.016 20.0474 277.941 17.963 279.867 15.8471C280.024 15.9418 280.214 16.0365 280.372 16.1629C279.614 17.3314 278.857 18.5315 278.068 19.7C278.131 19.7316 278.162 19.7948 278.225 19.8264C278.194 19.7632 278.162 19.7 278.131 19.6369C279.078 18.9737 280.056 18.342 281.003 17.6788C282.139 16.8893 283.244 16.0681 284.38 15.247L284.317 15.1838C283.496 16.6998 282.676 18.2157 281.792 19.9211C283.496 18.6894 285.137 17.4893 286.779 16.2892C286.936 16.4471 287.094 16.6366 287.252 16.7945C286.147 18.1841 285.043 19.5737 283.654 21.3423C285.358 20.5527 286.747 19.9211 288.104 19.2895C284.254 23.553 283.433 29.0798 281.539 34.1013C280.498 36.849 279.961 39.8177 279.109 42.66C277.752 47.0815 276.332 51.5029 274.722 56.6192C280.877 56.6192 286.747 56.6192 292.618 56.6192C292.87 56.9666 293.123 57.3456 293.344 57.693C284.38 59.2405 285.264 65.999 284.917 72.5048C284.064 71.9995 283.496 71.7469 283.023 71.3995C279.677 68.8413 276.363 66.2516 273.049 63.6619C271.661 62.5881 270.809 62.5566 269.546 64.262C267.4 67.1991 264.654 69.7256 262.255 72.5048C258.499 76.8315 254.775 81.2214 251.051 85.5797C250.136 86.6535 249.189 87.7588 248.4 88.8958C247.043 90.8223 245.812 92.8435 244.202 95.2753C243.981 93.7594 243.792 92.5277 243.571 90.917C242.782 92.4014 242.087 93.6331 241.393 94.8963C241.172 94.8332 240.92 94.77 240.699 94.7068C240.857 93.033 241.014 91.3908 241.204 89.3695C240.131 90.696 239.247 91.8329 238.363 92.9383C238.174 92.8435 237.953 92.7488 237.763 92.654C238.363 90.7907 238.931 88.8958 239.689 86.5272C238.553 87.4114 237.795 88.0115 237.038 88.6115C236.88 88.5168 236.754 88.4221 236.596 88.3589C237.574 86.464 238.553 84.5375 239.689 82.2952C238.837 82.611 238.363 82.7689 237.89 82.9584L237.827 82.8952C242.056 76.3894 244.833 68.9045 251.177 63.8514C253.071 62.3671 254.523 60.3458 256.669 58.1035C254.681 57.0297 253.166 56.2086 251.619 55.3875C252.377 53.2083 254.112 52.0398 256.669 52.103C259.509 52.1977 260.961 50.6502 261.656 48.0921C262.129 46.3867 262.887 44.7444 263.139 43.039C264.338 34.1013 270.524 27.6587 274.28 20.0159C274.533 20.1106 274.754 20.2053 275.006 20.3317C274.691 20.9949 274.375 21.6897 274.091 22.3529C274.122 22.3845 274.186 22.3845 274.217 22.4161C274.154 22.2897 274.122 22.2266 274.091 22.1634Z" fill="#E30613"/>
<path d="M218.29 101.276C218.227 101.434 218.132 101.56 218.069 101.718C217.974 101.623 217.88 101.528 217.817 101.434C217.974 101.371 218.101 101.276 218.259 101.213C218.227 101.213 218.29 101.276 218.29 101.276Z" fill="#E30613"/>
<path d="M264.781 33.596C264.844 33.5013 264.875 33.4065 264.938 33.3118C264.938 33.3749 264.97 33.4697 264.938 33.4697C264.875 33.5013 264.812 33.5328 264.718 33.5644L264.781 33.596Z" fill="#E30613"/>
<path d="M0.862061 243.015V272.639H446.922V243.015C298.267 220.623 149.58 265.438 0.862061 243.015Z" fill="#07873A"/>
<path d="M173.725 181.115C194.714 165.135 220.689 151.839 250.231 142.206C206.518 106.708 148.223 84.98 84.1533 84.98C54.7064 84.98 26.4903 89.5593 0.325684 97.9601V177.546C58.1466 186.263 115.936 184.842 173.725 181.115Z" fill="#3CAA36"/>
<path d="M366.44 131.784C296.247 131.784 233.345 150.449 190.169 180.041C275.764 174.04 361.359 164.692 446.954 177.578V140.343C421.831 134.816 394.72 131.784 366.44 131.784Z" fill="#07873A"/>
<path d="M446.954 234.678C298.078 212.255 149.233 257.101 0.357178 234.678V185.915C149.233 208.338 298.078 163.492 446.954 185.915V234.678Z" fill="#1A9DD9"/>
<path d="M537.82 85.485L510.33 37.7017V85.485H498.147V19.7317H512.034L539.24 67.6097V19.7317H551.423V85.485H537.82Z" fill="black"/>
<path d="M587.624 86.6538C573.201 86.6538 561.46 75.0948 561.46 60.8514C561.46 46.7028 573.201 35.0491 587.53 35.0491C602.395 35.0491 613.852 46.5133 613.852 61.1988C613.852 75.0632 601.953 86.6538 587.624 86.6538ZM587.624 45.8816C579.892 45.8816 573.39 52.5454 573.39 60.6619C573.39 69.1259 579.702 75.7896 587.719 75.7896C595.546 75.7896 601.953 69.1259 601.953 60.8514C601.953 52.6401 595.546 45.8816 587.624 45.8816Z" fill="black"/>
<path d="M633.262 58.0723V85.4853H621.427V36.1861H632.284V40.9865C635.409 36.4388 637.902 35.0176 642.952 35.0176H643.836V46.4186C636.703 46.6081 633.262 50.4295 633.262 58.0723Z" fill="black"/>
<path d="M665.708 46.9552V85.485H653.872V46.9552H648.096V36.1858H653.872V19.7317H665.708V36.1858H672.809V46.9552H665.708Z" fill="black"/>
<path d="M712.387 85.485V60.3143C712.387 49.9871 709.704 45.8814 702.792 45.8814C696.038 45.8814 692.377 49.6081 692.377 60.4722V85.485H680.542V19.7317H692.377V39.5651C695.944 36.3753 699.857 34.9225 704.907 34.9225C716.743 34.9225 724.223 41.4284 724.223 57.6299V85.485H712.387Z" fill="black"/>
<path d="M537.82 180.83L510.33 133.047V180.83H498.147V115.077H512.034L539.24 162.955V115.077H551.423V180.83H537.82Z" fill="black"/>
<path d="M587.624 181.999C573.201 181.999 561.46 170.44 561.46 156.197C561.46 142.048 573.201 130.395 587.53 130.395C602.395 130.395 613.852 141.859 613.852 156.544C613.852 170.44 601.953 181.999 587.624 181.999ZM587.624 141.227C579.892 141.227 573.39 147.891 573.39 156.007C573.39 164.471 579.702 171.135 587.719 171.135C595.546 171.135 601.953 164.471 601.953 156.197C601.953 147.986 595.546 141.227 587.624 141.227Z" fill="black"/>
<path d="M633.262 153.418V180.831H621.427V131.531H632.284V136.332C635.409 131.784 637.902 130.363 642.952 130.363H643.836V141.764C636.703 141.953 633.262 145.775 633.262 153.418Z" fill="black"/>
<path d="M665.708 142.301V180.83H653.872V142.301H648.096V131.531H653.872V115.077H665.708V131.531H672.809V142.301H665.708Z" fill="black"/>
<path d="M712.387 180.83V155.66C712.387 145.333 709.704 141.227 702.792 141.227C696.038 141.227 692.377 144.954 692.377 155.818V180.83H680.542V115.077H692.377V134.911C695.944 131.721 699.857 130.268 704.907 130.268C716.743 130.268 724.223 136.774 724.223 152.975V180.83H712.387Z" fill="black"/>
<path d="M773.869 180.831V174.419C769.166 179.757 764.432 181.999 757.52 181.999C743.096 181.999 732.713 171.23 732.713 156.355C732.713 141.322 743.191 130.363 757.804 130.363C764.905 130.363 769.797 132.668 773.901 138.1V131.5H784.758V180.799H773.869V180.831ZM759.003 141.227C750.545 141.227 744.58 147.638 744.58 156.607C744.58 165.229 750.545 171.103 759.161 171.103C768.156 171.103 773.49 164.692 773.49 156.513C773.49 147.543 767.462 141.227 759.003 141.227Z" fill="black"/>
<path d="M856.466 180.831V153.765C856.466 143.88 852.742 141.227 847.218 141.227C840.653 141.227 837.245 144.796 837.245 156.544V180.831H825.409V153.765C825.409 144.069 822.032 141.227 815.814 141.227C808.966 141.227 806.22 144.89 806.22 156.544V180.831H794.384V131.531H805.241V136.142C808.713 131.973 812.279 130.363 818.055 130.363C824.809 130.363 829.165 132.668 832.542 138.006C836.55 132.668 841.442 130.363 848.386 130.363C861.358 130.363 868.301 137.563 868.301 152.344V180.831H856.466Z" fill="black"/>
<path d="M906.744 181.999C900.684 181.999 896.076 180.23 891.626 176.22V197.316H879.79V131.531H890.647V137.311C894.466 132.858 900.179 130.363 906.838 130.363C921.073 130.363 931.393 141.132 931.393 156.007C931.362 170.977 920.946 181.999 906.744 181.999ZM905.292 141.227C897.117 141.227 890.868 147.638 890.868 156.102C890.868 164.724 897.086 171.135 905.45 171.135C913.277 171.135 919.4 164.629 919.4 156.26C919.463 147.733 913.308 141.227 905.292 141.227Z" fill="black"/>
<path d="M952.981 142.301V180.83H941.146V142.301H935.37V131.531H941.146V115.077H952.981V131.531H960.083V142.301H952.981Z" fill="black"/>
<path d="M990.066 181.999C975.642 181.999 963.901 170.44 963.901 156.197C963.901 142.048 975.642 130.395 989.971 130.395C1004.84 130.395 1016.29 141.859 1016.29 156.544C1016.29 170.44 1004.39 181.999 990.066 181.999ZM990.066 141.227C982.333 141.227 975.832 147.891 975.832 156.007C975.832 164.471 982.144 171.135 990.161 171.135C997.988 171.135 1004.39 164.471 1004.39 156.197C1004.39 147.986 997.988 141.227 990.066 141.227Z" fill="black"/>
<path d="M1055.78 180.831V156.702C1055.78 143.532 1052.21 141.227 1046.34 141.227C1042.62 141.227 1039.49 142.838 1037.63 145.775C1036.11 148.175 1035.67 151.017 1035.67 157.618V180.831H1023.84V131.531H1034.79V136.237C1039.14 132.068 1043.06 130.363 1048.68 130.363C1055.53 130.363 1060.86 132.858 1064.05 137.469C1066.73 141.29 1067.61 145.554 1067.61 154.365V180.799H1055.78V180.831Z" fill="black"/>
<path d="M1093.05 181.999C1083.27 181.999 1076.23 176.662 1075 165.166H1086.93C1088.1 169.335 1090.05 171.135 1093.53 171.135C1096.56 171.135 1098.86 169.082 1098.86 166.335C1098.86 163.492 1098.42 162.671 1090.5 160.018C1080.71 156.734 1076.8 152.628 1076.8 145.427C1076.8 136.964 1083.99 130.395 1093.18 130.395C1101.54 130.395 1108.93 135.921 1109.37 145.175H1097.82C1097.28 142.585 1095.67 141.259 1093.18 141.259C1090.59 141.259 1088.63 143.027 1088.63 145.427C1088.63 148.017 1088.89 148.175 1097 150.765C1107.32 153.955 1110.69 157.871 1110.69 165.198C1110.66 174.609 1102.93 181.999 1093.05 181.999Z" fill="black"/>
<path d="M1149.99 180.83V155.66C1149.99 145.333 1147.31 141.227 1140.39 141.227C1133.64 141.227 1129.98 144.954 1129.98 155.818V180.83H1118.14V115.077H1129.98V134.911C1133.55 131.721 1137.46 130.268 1142.51 130.268C1154.34 130.268 1161.82 136.774 1161.82 152.975V180.83H1149.99Z" fill="black"/>
<path d="M1172.4 180.83V131.531H1184.23V180.83H1172.4ZM1172.46 124.425V112.582H1184.3V124.425H1172.46Z" fill="black"/>
<path d="M1206.45 153.418V180.831H1194.62V131.531H1205.47V136.332C1208.6 131.784 1211.09 130.363 1216.14 130.363H1217.03V141.764C1209.92 141.953 1206.45 145.775 1206.45 153.418Z" fill="black"/>
<path d="M1271.03 161.439H1232.87C1234.29 167.408 1239.47 171.135 1246.47 171.135C1251.36 171.135 1254.3 169.808 1257.33 166.24H1270.24C1266.96 176.378 1256.73 181.999 1246.76 181.999C1231.73 181.999 1220.09 170.788 1220.09 156.355C1220.09 141.859 1231.58 130.363 1246.06 130.363C1260.74 130.363 1271.5 141.574 1271.5 156.892C1271.47 158.692 1271.37 159.734 1271.03 161.439ZM1246.19 141.227C1239.15 141.227 1234.35 144.701 1232.49 151.017H1259.79C1258.31 144.701 1253.51 141.227 1246.19 141.227Z" fill="black"/>
<path d="M529.361 277.345C510.14 277.345 494.77 262.027 494.77 243.078C494.77 224.477 509.982 209.254 528.572 209.254C542.081 209.254 553.916 216.55 559.692 229.277H546.089C541.639 223.498 536.494 221.003 528.825 221.003C516.295 221.003 507.047 230.793 507.047 243.173C507.047 255.458 517.021 265.596 529.109 265.596C535.421 265.596 540.061 263.449 545.395 257.859H559.724C554.547 269.86 542.807 277.345 529.361 277.345Z" fill="black"/>
<path d="M591.19 277.344C576.767 277.344 565.026 265.785 565.026 251.542C565.026 237.393 576.767 225.74 591.096 225.74C605.961 225.74 617.418 237.204 617.418 251.921C617.418 265.785 605.488 277.344 591.19 277.344ZM591.19 236.604C583.458 236.604 576.956 243.268 576.956 251.384C576.956 259.848 583.268 266.512 591.285 266.512C599.112 266.512 605.52 259.848 605.52 251.574C605.488 243.362 599.081 236.604 591.19 236.604Z" fill="black"/>
<path d="M657.88 276.208V271.502C653.43 275.861 649.706 277.376 643.741 277.376C632.252 277.376 624.961 270.713 624.961 253.343V226.909H636.797V251.037C636.797 264.112 640.427 266.512 646.139 266.512C650.148 266.512 653.335 264.807 655.134 261.965C656.46 259.754 656.997 256.722 656.997 250.121V226.909H668.832V276.208H657.88Z" fill="black"/>
<path d="M711.156 276.208V252.079C711.156 238.909 707.589 236.604 701.719 236.604C697.995 236.604 694.87 238.215 693.008 241.152C691.493 243.552 691.051 246.394 691.051 252.995V276.208H679.216V226.877H690.167V231.582C694.523 227.414 698.437 225.708 704.055 225.708C710.903 225.708 716.237 228.203 719.425 232.814C722.108 236.636 722.992 240.899 722.992 249.71V276.144H711.156V276.208Z" fill="black"/>
<path d="M757.678 277.344C743.096 277.344 731.355 265.849 731.355 251.542C731.355 237.046 742.749 225.74 757.331 225.74C768.535 225.74 778.319 232.056 782.138 243.362H768.788C766.389 238.815 762.665 236.604 757.299 236.604C749.125 236.604 743.254 242.826 743.254 251.479C743.254 260.101 749.377 266.512 757.583 266.512C762.475 266.512 765.852 264.554 768.788 260.006H782.138C778.035 271.028 769.135 277.344 757.678 277.344Z" fill="black"/>
<path d="M791.291 276.208V226.877H803.127V276.176H791.291V276.208ZM791.386 219.771V207.928H803.221V219.771H791.386Z" fill="black"/>
<path d="M813.51 276.208V210.423H825.346V276.176H813.51V276.208Z" fill="black"/>
</svg>
