<svg width="1111" height="372" viewBox="0 0 1111 372" fill="none" xmlns="http://www.w3.org/2000/svg">
<path d="M136.76 254.84C137.28 255.88 137.83 256.91 138.39 257.93C152.96 257.18 166.12 249.7 174.15 237.72C173.92 237.29 173.69 236.85 173.47 236.41C165.31 220.16 166.26 201.67 174.38 186.8C170.17 180.39 164.31 174.96 157.01 171.22C151.26 168.27 145.13 166.6 138.76 166.24C135.86 171.44 133.43 176.94 131.51 182.72C123.58 206.68 125.44 232.29 136.76 254.84Z" fill="url(#paint0_linear)"/>
<path d="M305.63 170.07C294.31 147.52 274.88 130.72 250.93 122.78C230.05 115.86 207.9 116.39 187.63 124.14C202.37 132.76 214.51 144.74 223.21 159.11C242.02 159.85 259.9 170.52 268.93 188.5C282.14 214.82 271.48 246.97 245.16 260.18C237.94 263.8 230.29 265.63 222.7 265.83C213.75 280.31 201.49 292.14 186.9 300.49C188.4 301.07 189.92 301.62 191.47 302.13C215.42 310.07 241.04 308.21 263.59 296.89C286.14 285.57 302.94 266.14 310.88 242.19C318.82 218.23 316.96 192.62 305.63 170.07Z" fill="url(#paint1_linear)"/>
<path d="M217.23 163.68C208.26 148.56 195.2 136.24 179.18 128.02C166.2 121.36 152.17 117.86 138 117.58C131.66 130.13 131.18 145.37 137.8 158.72C145.45 158.96 153.17 160.85 160.43 164.57C169.47 169.21 176.62 176.08 181.56 184.17C188.61 183.78 195.51 181.75 201.68 178.23C208.03 174.62 213.3 169.66 217.23 163.68Z" fill="url(#paint2_linear)"/>
<path d="M181.4 240.29C166.9 263.64 136.56 272.36 111.68 259.6C85.48 246.16 75.1 213.91 88.54 187.71C88.73 187.33 88.93 186.96 89.13 186.59C81.03 171.54 76.92 155.02 76.95 138.32C66.68 146.54 58.17 156.91 51.99 168.97C40.47 191.43 38.39 217.02 46.12 241.04C53.85 265.06 70.48 284.64 92.93 296.15C115.39 307.67 140.98 309.75 165 302.02C189.02 294.29 208.59 277.66 220.11 255.21C224.74 246.19 227.84 236.66 229.4 226.93C214.68 235.31 198.14 239.9 181.4 240.29Z" fill="url(#paint3_linear)"/>
<path d="M205.39 184.73C197.44 189.26 188.81 191.51 180.26 191.7C173.95 204.19 173.39 219.38 180.05 232.84C195.92 232.68 211.56 228.49 225.73 220.42C239.9 212.34 251.48 201.01 259.71 187.44C251.85 175.3 238.78 167.61 224.21 166.65C219.68 173.91 213.34 180.2 205.39 184.73Z" fill="url(#paint4_linear)"/>
<path d="M124.42 180.37C126.39 174.44 128.86 168.77 131.8 163.39C118.3 138.02 127.39 106.25 152.51 91.93C177.63 77.62 209.58 85.99 224.53 110.51C234.26 110.84 243.92 112.57 253.28 115.67C260.01 117.9 266.41 120.79 272.41 124.26C270.7 112.9 266.89 101.83 261.03 91.55C248.54 69.62 228.25 53.88 203.91 47.21C179.57 40.54 154.09 43.75 132.17 56.24C110.24 68.74 94.5 89.02 87.83 113.36C81.16 137.7 84.37 163.18 96.86 185.11C102.72 195.39 110.3 204.3 119.2 211.57C119.3 201.1 121.03 190.59 124.42 180.37Z" fill="url(#paint5_linear)"/>
<path d="M480.99 73.1399L466.83 128.7H451.43L442.45 94.3399L433.73 128.7H418.33L404.17 73.1399H418.75L426.45 110.41L435.84 73.1399H449.78L458.68 110.41L466.8 73.1399H480.99Z" fill="black"/>
<path d="M508.75 129.82C500.79 129.82 494.68 127.93 490.43 124.15C486.19 120.37 484.06 114.98 484.06 107.99C484.06 101.15 486.04 95.69 490 91.61C493.96 87.53 499.49 85.49 506.61 85.49C513.07 85.49 517.93 87.22 521.19 90.68C524.45 94.14 526.07 99.09 526.07 105.53V110.23H497.25C497.38 112.17 497.79 113.79 498.49 115.1C499.19 116.41 500.12 117.44 501.27 118.22C502.4 118.99 503.71 119.54 505.21 119.88C506.71 120.22 508.35 120.38 510.13 120.38C511.66 120.38 513.16 120.21 514.64 119.88C516.12 119.55 517.47 119.1 518.7 118.56C519.78 118.09 520.77 117.58 521.69 117.03C522.6 116.48 523.35 116 523.93 115.57H525.32V126.35C524.24 126.77 523.26 127.17 522.37 127.53C521.48 127.89 520.26 128.26 518.71 128.63C517.28 129 515.81 129.3 514.3 129.51C512.78 129.71 510.93 129.82 508.75 129.82ZM513.11 102.36C513.03 99.6 512.39 97.5 511.17 96.05C509.96 94.61 508.1 93.89 505.59 93.89C503.04 93.89 501.04 94.65 499.6 96.17C498.16 97.69 497.37 99.75 497.21 102.36H513.11Z" fill="black"/>
<path d="M545.68 129.86C542.57 129.86 539.64 129.52 536.87 128.85C534.1 128.18 531.82 127.39 530.01 126.5V115.46H531.1C531.73 115.93 532.44 116.45 533.24 117.03C534.04 117.6 535.16 118.2 536.58 118.82C537.81 119.39 539.19 119.88 540.73 120.29C542.27 120.7 543.94 120.91 545.75 120.91C547.6 120.91 549.24 120.62 550.65 120.05C552.06 119.48 552.77 118.57 552.77 117.33C552.77 116.36 552.44 115.63 551.79 115.13C551.14 114.63 549.87 114.16 548 113.71C547 113.46 545.73 113.19 544.21 112.91C542.68 112.62 541.33 112.29 540.15 111.92C536.84 110.9 534.36 109.39 532.69 107.39C531.02 105.39 530.19 102.76 530.19 99.4999C530.19 97.6299 530.62 95.8799 531.49 94.2199C532.35 92.5699 533.62 91.0899 535.3 89.7999C536.98 88.5299 539.05 87.5199 541.52 86.7799C543.99 86.0299 546.77 85.6599 549.88 85.6599C552.84 85.6599 555.55 85.9499 558.03 86.5399C560.51 87.1199 562.6 87.8299 564.3 88.6499V99.2499H563.25C562.8 98.8999 562.09 98.4399 561.11 97.8499C560.13 97.2699 559.18 96.7599 558.25 96.3399C557.15 95.8399 555.91 95.4299 554.55 95.1099C553.18 94.7899 551.79 94.6199 550.36 94.6199C548.46 94.6199 546.85 94.9399 545.53 95.5899C544.21 96.2399 543.56 97.0999 543.56 98.1599C543.56 99.1099 543.89 99.8499 544.54 100.4C545.19 100.95 546.61 101.48 548.79 102C549.92 102.27 551.21 102.54 552.68 102.8C554.14 103.06 555.55 103.42 556.91 103.86C559.94 104.83 562.24 106.25 563.8 108.13C565.36 110.01 566.15 112.5 566.15 115.61C566.15 117.58 565.69 119.45 564.76 121.23C563.83 123.01 562.52 124.51 560.82 125.73C559.02 127.05 556.89 128.07 554.45 128.79C552.01 129.5 549.09 129.86 545.68 129.86Z" fill="black"/>
<path d="M588.59 129.52C583.23 129.52 579.33 128.43 576.89 126.24C574.45 124.05 573.23 120.47 573.23 115.49V95.8998H568.2V86.7998H573.23V74.8198H586.38V86.7998H599.04V95.8998H586.38V110.75C586.38 112.22 586.39 113.5 586.42 114.59C586.45 115.68 586.65 116.67 587.02 117.54C587.37 118.41 587.99 119.1 588.88 119.61C589.77 120.12 591.07 120.37 592.77 120.37C593.47 120.37 594.39 120.22 595.53 119.92C596.67 119.62 597.46 119.35 597.92 119.1H599.05V128.32C597.62 128.69 596.11 128.99 594.5 129.2C592.88 129.41 590.92 129.52 588.59 129.52Z" fill="black"/>
<path d="M456.75 220.39H443.22L421.65 181.66V220.39H408.8V164.83H426.04L443.89 196.66V164.83H456.74V220.39H456.75Z" fill="black"/>
<path d="M507.85 199.46C507.85 206.35 505.95 211.78 502.16 215.75C498.36 219.72 493 221.7 486.06 221.7C479.17 221.7 473.82 219.72 470 215.75C466.18 211.78 464.27 206.35 464.27 199.46C464.27 192.5 466.18 187.04 470 183.1C473.82 179.16 479.17 177.19 486.06 177.19C492.97 177.19 498.33 179.17 502.14 183.14C505.95 187.11 507.85 192.55 507.85 199.46ZM494.36 199.54C494.36 197.05 494.15 194.98 493.74 193.33C493.33 191.68 492.76 190.35 492.03 189.36C491.25 188.32 490.38 187.59 489.4 187.18C488.42 186.77 487.31 186.56 486.06 186.56C484.88 186.56 483.82 186.74 482.87 187.1C481.92 187.46 481.04 188.15 480.24 189.17C479.49 190.14 478.89 191.47 478.44 193.16C477.99 194.85 477.76 196.98 477.76 199.54C477.76 202.1 477.97 204.17 478.4 205.75C478.83 207.33 479.38 208.59 480.05 209.54C480.75 210.51 481.63 211.22 482.68 211.67C483.73 212.12 484.9 212.34 486.17 212.34C487.22 212.34 488.29 212.12 489.38 211.67C490.47 211.22 491.34 210.55 491.99 209.66C492.77 208.59 493.36 207.3 493.76 205.8C494.16 204.28 494.36 202.2 494.36 199.54Z" fill="black"/>
<path d="M543.16 190.84H542.07C541.57 190.67 540.84 190.54 539.89 190.45C538.94 190.36 537.89 190.32 536.73 190.32C535.35 190.32 533.91 190.52 532.39 190.92C530.87 191.32 529.4 191.79 527.98 192.34V220.4H514.83V178.5H527.98V184.51C528.58 183.96 529.41 183.27 530.48 182.44C531.54 181.61 532.51 180.94 533.39 180.44C534.34 179.87 535.45 179.38 536.72 178.97C537.98 178.56 539.18 178.35 540.31 178.35C540.74 178.35 541.21 178.36 541.74 178.39C542.27 178.41 542.74 178.45 543.17 178.5V190.84H543.16Z" fill="black"/>
<path d="M564.35 221.22C558.99 221.22 555.09 220.13 552.65 217.94C550.21 215.75 548.99 212.17 548.99 207.19V187.6H543.96V178.5H548.99V166.52H562.14V178.5H574.8V187.6H562.14V202.45C562.14 203.92 562.15 205.2 562.18 206.29C562.21 207.38 562.41 208.37 562.78 209.24C563.13 210.11 563.75 210.8 564.64 211.31C565.53 211.82 566.83 212.07 568.53 212.07C569.23 212.07 570.15 211.92 571.29 211.62C572.43 211.32 573.22 211.05 573.68 210.8H574.81V220.02C573.38 220.39 571.87 220.69 570.26 220.9C568.65 221.11 566.68 221.22 564.35 221.22Z" fill="black"/>
<path d="M619.69 220.39H606.47V199.61C606.47 197.92 606.4 196.23 606.26 194.55C606.12 192.87 605.87 191.63 605.49 190.84C605.04 189.89 604.39 189.22 603.54 188.81C602.69 188.4 601.55 188.19 600.12 188.19C599.04 188.19 597.95 188.39 596.85 188.79C595.75 189.19 594.57 189.82 593.32 190.69V220.39H580.17V162.33H593.32V183.11C595.47 181.29 597.57 179.88 599.61 178.86C601.65 177.84 603.91 177.33 606.39 177.33C610.7 177.33 613.99 178.68 616.27 181.38C618.55 184.08 619.69 187.99 619.69 193.11V220.39Z" fill="black"/>
<path d="M652.68 215.95C651.78 216.7 650.97 217.37 650.26 217.96C649.55 218.56 648.59 219.15 647.39 219.75C646.21 220.32 645.07 220.76 643.95 221.06C642.83 221.36 641.28 221.51 639.27 221.51C635.54 221.51 632.44 220.27 629.97 217.78C627.5 215.29 626.27 212.16 626.27 208.38C626.27 205.27 626.9 202.76 628.15 200.84C629.4 198.92 631.21 197.41 633.56 196.29C635.94 195.15 638.78 194.35 642.09 193.9C645.4 193.45 648.95 193.1 652.76 192.86V192.64C652.76 190.33 651.9 188.73 650.19 187.85C648.47 186.97 645.9 186.53 642.47 186.53C640.92 186.53 639.1 186.81 637.02 187.37C634.94 187.93 632.91 188.64 630.93 189.52H629.8V179.41C631.1 179.04 633.21 178.6 636.11 178.09C639.02 177.58 641.95 177.33 644.9 177.33C652.16 177.33 657.45 178.53 660.77 180.93C664.09 183.33 665.75 186.99 665.75 191.92V220.43H652.68V215.95ZM652.68 209.46V200.73C650.45 200.95 648.65 201.15 647.27 201.31C645.89 201.47 644.54 201.79 643.21 202.26C642.06 202.66 641.16 203.26 640.52 204.07C639.88 204.88 639.56 205.95 639.56 207.3C639.56 209.27 640.09 210.61 641.16 211.35C642.22 212.08 643.8 212.45 645.87 212.45C647.02 212.45 648.2 212.19 649.4 211.67C650.61 211.14 651.7 210.41 652.68 209.46Z" fill="black"/>
<path d="M725.9 220.39V199.46C725.9 197.4 725.86 195.65 725.79 194.24C725.71 192.82 725.49 191.67 725.11 190.77C724.73 189.87 724.15 189.22 723.36 188.81C722.57 188.4 721.46 188.19 720.03 188.19C719.03 188.19 718.04 188.41 717.06 188.84C716.08 189.28 715.02 189.89 713.87 190.69V220.39H700.65V199.46C700.65 197.42 700.61 195.69 700.52 194.26C700.43 192.83 700.2 191.67 699.82 190.77C699.44 189.87 698.86 189.22 698.07 188.81C697.28 188.4 696.19 188.19 694.78 188.19C693.7 188.19 692.65 188.44 691.62 188.94C690.59 189.44 689.59 190.02 688.61 190.69V220.39H675.46V178.49H688.61V183.12C690.76 181.3 692.79 179.89 694.7 178.87C696.6 177.85 698.74 177.34 701.12 177.34C703.7 177.34 705.97 177.95 707.92 179.17C709.87 180.39 711.36 182.21 712.39 184.62C714.92 182.28 717.3 180.48 719.55 179.23C721.79 177.97 724.07 177.35 726.37 177.35C728.32 177.35 730.08 177.66 731.63 178.28C733.18 178.9 734.5 179.83 735.57 181.08C736.75 182.42 737.63 184.02 738.22 185.87C738.81 187.72 739.1 190.14 739.1 193.13V220.4H725.9V220.39Z" fill="black"/>
<path d="M790.22 198.87C790.22 205.56 788.51 210.96 785.09 215.06C781.67 219.16 777.46 221.22 772.45 221.22C770.35 221.22 768.52 220.98 766.96 220.51C765.41 220.04 763.75 219.3 762 218.31V235.77H748.85V178.5H762V182.87C763.93 181.23 765.89 179.9 767.9 178.88C769.9 177.86 772.22 177.35 774.85 177.35C779.73 177.35 783.52 179.28 786.2 183.13C788.88 186.98 790.22 192.22 790.22 198.87ZM776.77 199.13C776.77 195.05 776.14 192.09 774.87 190.25C773.6 188.41 771.63 187.49 768.95 187.49C767.77 187.49 766.6 187.68 765.44 188.05C764.28 188.42 763.13 188.98 762 189.73V210.81C762.7 211.11 763.47 211.32 764.31 211.44C765.15 211.56 766.15 211.63 767.3 211.63C770.51 211.63 772.89 210.59 774.44 208.51C776 206.43 776.77 203.31 776.77 199.13Z" fill="black"/>
<path d="M813.44 221.22C808.08 221.22 804.18 220.13 801.74 217.94C799.3 215.75 798.08 212.17 798.08 207.19V187.6H793.05V178.5H798.08V166.52H811.23V178.5H823.89V187.6H811.23V202.45C811.23 203.92 811.24 205.2 811.27 206.29C811.3 207.38 811.5 208.37 811.87 209.24C812.22 210.11 812.84 210.8 813.73 211.31C814.62 211.82 815.92 212.07 817.62 212.07C818.32 212.07 819.24 211.92 820.38 211.62C821.52 211.32 822.31 211.05 822.77 210.8H823.9V220.02C822.47 220.39 820.96 220.69 819.35 220.9C817.74 221.11 815.77 221.22 813.44 221.22Z" fill="black"/>
<path d="M869.76 199.46C869.76 206.35 867.86 211.78 864.07 215.75C860.27 219.72 854.91 221.7 847.97 221.7C841.08 221.7 835.73 219.72 831.91 215.75C828.09 211.78 826.18 206.35 826.18 199.46C826.18 192.5 828.09 187.04 831.91 183.1C835.73 179.16 841.08 177.19 847.97 177.19C854.88 177.19 860.24 179.17 864.05 183.14C867.86 187.11 869.76 192.55 869.76 199.46ZM856.27 199.54C856.27 197.05 856.06 194.98 855.65 193.33C855.24 191.68 854.67 190.35 853.94 189.36C853.16 188.32 852.29 187.59 851.31 187.18C850.33 186.77 849.22 186.56 847.97 186.56C846.79 186.56 845.73 186.74 844.78 187.1C843.83 187.46 842.95 188.15 842.15 189.17C841.4 190.14 840.8 191.47 840.35 193.16C839.9 194.85 839.67 196.98 839.67 199.54C839.67 202.1 839.88 204.17 840.31 205.75C840.74 207.33 841.29 208.59 841.96 209.54C842.66 210.51 843.54 211.22 844.59 211.67C845.64 212.12 846.81 212.34 848.08 212.34C849.13 212.34 850.2 212.12 851.29 211.67C852.38 211.22 853.25 210.55 853.9 209.66C854.68 208.59 855.27 207.3 855.67 205.8C856.07 204.28 856.27 202.2 856.27 199.54Z" fill="black"/>
<path d="M916.27 220.39H903.05V199.61C903.05 197.92 902.98 196.23 902.84 194.55C902.7 192.87 902.45 191.63 902.07 190.84C901.62 189.89 900.97 189.22 900.12 188.81C899.27 188.4 898.13 188.19 896.7 188.19C895.62 188.19 894.53 188.39 893.43 188.79C892.33 189.19 891.15 189.82 889.9 190.69V220.39H876.75V178.49H889.9V183.12C892.05 181.3 894.15 179.89 896.19 178.87C898.23 177.85 900.49 177.34 902.97 177.34C907.28 177.34 910.57 178.69 912.85 181.39C915.13 184.09 916.27 188 916.27 193.12V220.39Z" fill="black"/>
<path d="M938.85 221.55C935.74 221.55 932.81 221.21 930.04 220.54C927.27 219.87 924.99 219.08 923.18 218.19V207.15H924.27C924.9 207.62 925.61 208.14 926.41 208.72C927.21 209.29 928.33 209.89 929.75 210.51C930.98 211.08 932.36 211.57 933.9 211.98C935.44 212.39 937.11 212.6 938.92 212.6C940.77 212.6 942.41 212.31 943.82 211.74C945.23 211.17 945.94 210.26 945.94 209.02C945.94 208.05 945.61 207.32 944.96 206.82C944.31 206.32 943.04 205.85 941.17 205.4C940.17 205.15 938.9 204.88 937.38 204.6C935.85 204.31 934.5 203.98 933.32 203.61C930.01 202.59 927.53 201.08 925.86 199.08C924.19 197.08 923.36 194.45 923.36 191.19C923.36 189.32 923.79 187.57 924.66 185.91C925.52 184.26 926.79 182.78 928.47 181.49C930.15 180.22 932.22 179.21 934.69 178.47C937.16 177.72 939.94 177.35 943.05 177.35C946.01 177.35 948.72 177.64 951.2 178.23C953.68 178.81 955.77 179.52 957.47 180.34V190.94H956.42C955.97 190.59 955.26 190.13 954.28 189.54C953.3 188.96 952.35 188.45 951.42 188.03C950.32 187.53 949.08 187.12 947.72 186.8C946.35 186.48 944.96 186.31 943.53 186.31C941.63 186.31 940.02 186.63 938.7 187.28C937.38 187.93 936.73 188.79 936.73 189.85C936.73 190.8 937.06 191.54 937.71 192.09C938.36 192.64 939.78 193.17 941.96 193.69C943.09 193.96 944.38 194.23 945.85 194.49C947.31 194.75 948.72 195.11 950.08 195.55C953.11 196.52 955.41 197.94 956.97 199.82C958.53 201.7 959.32 204.19 959.32 207.3C959.32 209.27 958.86 211.14 957.93 212.92C957 214.7 955.69 216.2 953.99 217.42C952.19 218.74 950.06 219.76 947.62 220.48C945.18 221.19 942.26 221.55 938.85 221.55Z" fill="black"/>
<path d="M1005.12 220.39H991.9V199.61C991.9 197.92 991.83 196.23 991.69 194.55C991.55 192.87 991.3 191.63 990.92 190.84C990.47 189.89 989.82 189.22 988.97 188.81C988.12 188.4 986.98 188.19 985.55 188.19C984.47 188.19 983.38 188.39 982.28 188.79C981.18 189.19 980 189.82 978.75 190.69V220.39H965.6V162.33H978.75V183.11C980.9 181.29 983 179.88 985.04 178.86C987.08 177.84 989.34 177.33 991.82 177.33C996.13 177.33 999.42 178.68 1001.7 181.38C1003.98 184.08 1005.12 187.99 1005.12 193.11V220.39Z" fill="black"/>
<path d="M1028.38 172.52H1014.48V162.33H1028.38V172.52ZM1028 220.39H1014.85V178.49H1028V220.39Z" fill="black"/>
<path d="M1066.4 190.84H1065.31C1064.81 190.67 1064.08 190.54 1063.13 190.45C1062.18 190.36 1061.13 190.32 1059.97 190.32C1058.59 190.32 1057.15 190.52 1055.63 190.92C1054.11 191.32 1052.64 191.79 1051.22 192.34V220.4H1038.07V178.5H1051.22V184.51C1051.82 183.96 1052.65 183.27 1053.72 182.44C1054.78 181.61 1055.75 180.94 1056.63 180.44C1057.58 179.87 1058.69 179.38 1059.96 178.97C1061.22 178.56 1062.42 178.35 1063.55 178.35C1063.98 178.35 1064.45 178.36 1064.98 178.39C1065.51 178.41 1065.98 178.45 1066.41 178.5V190.84H1066.4Z" fill="black"/>
<path d="M1093.04 221.51C1085.08 221.51 1078.97 219.62 1074.72 215.84C1070.48 212.06 1068.35 206.67 1068.35 199.68C1068.35 192.84 1070.33 187.38 1074.29 183.3C1078.25 179.22 1083.78 177.18 1090.9 177.18C1097.36 177.18 1102.22 178.91 1105.48 182.37C1108.74 185.83 1110.36 190.78 1110.36 197.22V201.92H1081.54C1081.67 203.86 1082.08 205.48 1082.78 206.79C1083.48 208.1 1084.41 209.13 1085.56 209.91C1086.69 210.68 1088 211.23 1089.5 211.57C1091 211.91 1092.64 212.07 1094.42 212.07C1095.95 212.07 1097.45 211.9 1098.93 211.57C1100.41 211.24 1101.76 210.79 1102.99 210.25C1104.07 209.78 1105.06 209.27 1105.98 208.72C1106.89 208.17 1107.64 207.69 1108.22 207.26H1109.61V218.04C1108.53 218.46 1107.55 218.86 1106.66 219.22C1105.77 219.58 1104.55 219.95 1103 220.32C1101.57 220.69 1100.1 220.99 1098.59 221.2C1097.06 221.41 1095.21 221.51 1093.04 221.51ZM1097.39 194.05C1097.31 191.29 1096.67 189.19 1095.45 187.74C1094.24 186.3 1092.38 185.58 1089.87 185.58C1087.32 185.58 1085.32 186.34 1083.88 187.86C1082.44 189.38 1081.65 191.44 1081.49 194.05H1097.39Z" fill="black"/>
<path d="M432.94 313.17C424.55 313.17 417.89 310.65 412.95 305.61C408.02 300.57 405.55 293.49 405.55 284.36C405.55 275.55 408.02 268.53 412.97 263.3C417.92 258.06 424.58 255.45 432.98 255.45C435.21 255.45 437.21 255.57 438.99 255.82C440.77 256.07 442.47 256.42 444.1 256.86C445.38 257.23 446.77 257.74 448.27 258.39C449.77 259.04 450.99 259.6 451.91 260.07V273.32H450.48C449.8 272.72 448.95 272.01 447.93 271.17C446.9 270.34 445.74 269.52 444.44 268.73C443.14 267.94 441.7 267.26 440.14 266.7C438.57 266.14 436.94 265.86 435.24 265.86C433.21 265.86 431.35 266.18 429.66 266.81C427.97 267.44 426.36 268.54 424.83 270.11C423.43 271.53 422.28 273.44 421.39 275.86C420.5 278.27 420.06 281.12 420.06 284.4C420.06 287.86 420.52 290.76 421.45 293.11C422.38 295.46 423.59 297.36 425.09 298.8C426.54 300.19 428.16 301.2 429.96 301.82C431.75 302.44 433.53 302.75 435.31 302.75C437.16 302.75 438.93 302.45 440.61 301.84C442.29 301.23 443.7 300.55 444.86 299.81C446.11 299.04 447.21 298.26 448.17 297.46C449.12 296.66 449.95 295.96 450.65 295.33H451.93V308.39C450.9 308.86 449.71 309.4 448.36 310.01C447.01 310.62 445.62 311.14 444.19 311.56C442.44 312.08 440.8 312.48 439.27 312.75C437.74 313.02 435.62 313.17 432.94 313.17Z" fill="black"/>
<path d="M499.92 291.16C499.92 298.05 498.02 303.48 494.23 307.45C490.43 311.42 485.07 313.4 478.13 313.4C471.24 313.4 465.89 311.42 462.07 307.45C458.25 303.48 456.34 298.05 456.34 291.16C456.34 284.2 458.25 278.74 462.07 274.8C465.89 270.86 471.24 268.89 478.13 268.89C485.04 268.89 490.4 270.87 494.21 274.84C498.02 278.8 499.92 284.24 499.92 291.16ZM486.43 291.23C486.43 288.74 486.22 286.67 485.81 285.02C485.4 283.37 484.83 282.04 484.1 281.05C483.32 280.01 482.45 279.28 481.47 278.87C480.49 278.46 479.38 278.25 478.13 278.25C476.95 278.25 475.89 278.43 474.94 278.79C473.99 279.15 473.11 279.84 472.31 280.86C471.56 281.83 470.96 283.16 470.51 284.85C470.06 286.54 469.83 288.67 469.83 291.23C469.83 293.79 470.04 295.86 470.47 297.44C470.9 299.02 471.45 300.28 472.12 301.23C472.82 302.2 473.7 302.91 474.75 303.36C475.8 303.81 476.97 304.03 478.24 304.03C479.29 304.03 480.36 303.81 481.45 303.36C482.54 302.91 483.41 302.24 484.06 301.35C484.84 300.28 485.43 298.99 485.83 297.49C486.23 295.98 486.43 293.9 486.43 291.23Z" fill="black"/>
<path d="M546.1 312.09H532.95V307.46C530.67 309.35 528.58 310.79 526.68 311.77C524.78 312.75 522.51 313.24 519.88 313.24C515.7 313.24 512.43 311.93 510.09 309.3C507.75 306.68 506.58 302.73 506.58 297.45V270.18H519.8V290.96C519.8 293.12 519.86 294.89 519.97 296.26C520.08 297.63 520.35 298.78 520.78 299.73C521.18 300.6 521.8 301.26 522.64 301.71C523.48 302.16 524.65 302.38 526.15 302.38C527.08 302.38 528.17 302.16 529.44 301.71C530.7 301.26 531.88 300.65 532.95 299.88V270.18H546.1V312.09Z" fill="black"/>
<path d="M595.69 312.09H582.47V291.31C582.47 289.62 582.4 287.93 582.26 286.25C582.12 284.57 581.87 283.33 581.49 282.54C581.04 281.59 580.39 280.92 579.54 280.51C578.69 280.1 577.55 279.89 576.12 279.89C575.04 279.89 573.95 280.09 572.85 280.49C571.75 280.89 570.57 281.52 569.32 282.39V312.09H556.17V270.19H569.32V274.82C571.47 273 573.57 271.59 575.61 270.57C577.65 269.55 579.91 269.04 582.39 269.04C586.7 269.04 589.99 270.39 592.27 273.09C594.55 275.79 595.69 279.7 595.69 284.82V312.09Z" fill="black"/>
<path d="M626.12 313.21C622.64 313.21 619.45 312.77 616.56 311.9C613.67 311.03 611.16 309.69 609.03 307.87C606.93 306.05 605.29 303.77 604.11 301.02C602.93 298.27 602.34 295.03 602.34 291.3C602.34 287.3 602.98 283.89 604.26 281.08C605.54 278.27 607.27 275.96 609.44 274.14C611.54 272.4 614.02 271.11 616.86 270.28C619.7 269.45 622.66 269.03 625.74 269.03C628.07 269.03 630.4 269.3 632.73 269.83C635.06 270.37 637.4 271.22 639.76 272.39V283.58H638.07C637.54 283.08 636.9 282.54 636.13 281.94C635.37 281.34 634.53 280.8 633.63 280.3C632.68 279.78 631.6 279.34 630.4 278.98C629.2 278.62 627.86 278.44 626.38 278.44C623.02 278.44 620.42 279.6 618.58 281.93C616.74 284.26 615.82 287.38 615.82 291.31C615.82 295.51 616.8 298.65 618.77 300.71C620.74 302.77 623.35 303.81 626.6 303.81C628.25 303.81 629.71 303.62 630.96 303.25C632.21 302.88 633.29 302.43 634.19 301.91C635.07 301.39 635.82 300.85 636.44 300.29C637.07 299.73 637.6 299.23 638.06 298.78H639.75V309.97C639 310.29 638.13 310.67 637.14 311.09C636.15 311.51 635.14 311.86 634.12 312.13C632.84 312.48 631.65 312.75 630.53 312.93C629.42 313.12 627.95 313.21 626.12 313.21Z" fill="black"/>
<path d="M659.52 264.22H645.62V254.03H659.52V264.22ZM659.14 312.09H645.99V270.19H659.14V312.09Z" fill="black"/>
<path d="M682.36 312.09H669.21V254.03H682.36V312.09Z" fill="black"/>
<path d="M342.24 245.13C340.19 248.03 338.78 251.43 338.16 255.02C333.44 282.18 330.22 303.28 309.33 314.58C296.33 321.61 281.93 322.43 268.8 318.08C267.32 330.54 262.46 342.8 254.12 353.08C235.92 375.51 209.13 375.01 184.91 367.73C181.66 366.75 178.25 366.62 174.95 367.34C150.04 372.8 130.86 377.49 113.37 360.7C101.54 349.34 95.36 333.55 94.93 317.29C82.14 321.26 67.87 320.57 54.48 314.23C29.26 302.29 21.45 274.41 20.36 247.1C20.21 243.44 19.28 239.86 17.64 236.67C5.2 212.57 -4.81 194.16 4.5 170.89C11.12 154.35 23.94 142.74 38.98 137.65C32.09 125.8 28.66 111.24 30.1 95.95C32.91 66.19 54.96 49.64 78.56 40.23C81.72 38.97 84.57 36.92 86.87 34.24C104.2 14.03 117.3 -1.92001 140.5 0.669992C155.77 2.37999 168.94 10.88 177.97 23.27C186.19 12.72 197.73 4.85999 211.35 1.69999C238.24 -4.55001 259.51 13.18 275 34.71C277.08 37.59 279.75 39.92 282.8 41.47C305.81 53.2 323.79 61.84 328.67 86.66C332.17 104.47 327.83 122.2 318.12 135.91C333.77 140.52 347.82 152.41 355.8 169.86C368.06 196.64 357.56 223.46 342.24 245.13ZM339.9 171.36C332.64 155.49 319.88 144.69 305.65 140.5C314.47 128.03 318.42 111.92 315.24 95.73C310.81 73.17 294.46 65.32 273.55 54.66C270.78 53.25 268.35 51.14 266.46 48.51C252.38 28.94 233.05 12.82 208.6 18.51C196.22 21.39 185.73 28.53 178.26 38.12C170.05 26.85 158.07 19.13 144.2 17.58C123.11 15.22 111.2 29.73 95.44 48.09C93.35 50.52 90.76 52.39 87.88 53.53C66.43 62.08 46.38 77.13 43.83 104.18C42.52 118.08 45.64 131.32 51.9 142.09C38.23 146.72 26.57 157.27 20.56 172.31C12.1 193.46 21.19 210.2 32.5 232.1C34 235 34.84 238.26 34.98 241.58C35.97 266.41 43.07 291.75 65.99 302.6C78.16 308.36 91.13 308.99 102.76 305.38C103.15 320.16 108.77 334.52 119.52 344.84C135.42 360.11 152.85 355.84 175.5 350.88C178.5 350.22 181.61 350.35 184.56 351.23C206.58 357.85 230.93 358.3 247.48 337.91C255.06 328.57 259.48 317.42 260.82 306.1C272.76 310.05 285.85 309.31 297.66 302.91C316.65 292.63 319.58 273.45 323.87 248.77C324.44 245.5 325.71 242.42 327.58 239.78C341.49 220.09 351.04 195.71 339.9 171.36Z" fill="black"/>
<defs>
<linearGradient id="paint0_linear" x1="126.673" y1="212.04" x2="174.274" y2="212.247" gradientUnits="userSpaceOnUse">
<stop offset="0.00117826" stop-color="#234E7B"/>
<stop offset="0.9996" stop-color="#386092"/>
</linearGradient>
<linearGradient id="paint1_linear" x1="187.243" y1="212.31" x2="315.727" y2="212.869" gradientUnits="userSpaceOnUse">
<stop offset="0.00117826" stop-color="#234E7B"/>
<stop offset="0.9996" stop-color="#386092"/>
</linearGradient>
<linearGradient id="paint2_linear" x1="132.983" y1="150.76" x2="217.286" y2="151.127" gradientUnits="userSpaceOnUse">
<stop offset="0.00117774" stop-color="#9D1920"/>
<stop offset="1" stop-color="#7F1724"/>
</linearGradient>
<linearGradient id="paint3_linear" x1="41.4833" y1="222.184" x2="229.426" y2="223.002" gradientUnits="userSpaceOnUse">
<stop offset="0.00117774" stop-color="#9D1920"/>
<stop offset="1" stop-color="#7F1724"/>
</linearGradient>
<linearGradient id="paint4_linear" x1="175.339" y1="199.626" x2="259.654" y2="199.993" gradientUnits="userSpaceOnUse">
<stop stop-color="#6C9A36"/>
<stop offset="1" stop-color="#008C49"/>
</linearGradient>
<linearGradient id="paint5_linear" x1="84.4749" y1="127.409" x2="272.399" y2="128.226" gradientUnits="userSpaceOnUse">
<stop stop-color="#6C9A36"/>
<stop offset="1" stop-color="#008C49"/>
</linearGradient>
</defs>
</svg>
