<?xml version="1.0" standalone="no"?>
<!DOCTYPE svg PUBLIC "-//W3C//DTD SVG 20010904//EN"
 "http://www.w3.org/TR/2001/REC-SVG-20010904/DTD/svg10.dtd">
<svg version="1.0" xmlns="http://www.w3.org/2000/svg"
 width="936.000000pt" height="936.000000pt" viewBox="0 0 936.000000 936.000000"
 preserveAspectRatio="xMidYMid meet">
<metadata>
Created by potrace 1.11, written by Peter Selinger 2001-2013
</metadata>
<g transform="translate(0.000000,936.000000) scale(0.100000,-0.100000)"
fill="#000000" stroke="none">
<path d="M1567 8814 c-1 -1 -33 -5 -72 -9 -81 -8 -124 -13 -145 -18 -8 -2 -37
-7 -65 -12 -27 -4 -54 -10 -60 -13 -5 -4 -15 -7 -21 -8 -9 -1 -71 -20 -134
-39 -43 -14 -148 -65 -163 -80 -9 -8 -12 -39 -11 -89 l1 -76 -47 -35 c-26 -19
-50 -35 -52 -35 -3 0 -4 30 -3 68 0 37 -1 71 -3 75 -6 12 -42 -33 -63 -78 -18
-38 -19 -92 -19 -1149 l0 -1108 28 6 c15 3 38 9 52 11 21 5 55 12 95 21 38 8
332 61 390 69 11 2 37 6 58 9 47 8 89 13 152 21 28 3 64 8 82 10 18 3 58 7 90
10 32 3 79 8 105 10 114 13 258 23 423 31 117 5 616 6 723 1 l82 -4 0 208 c0
205 0 210 27 266 14 32 27 60 28 63 9 37 93 157 160 229 44 48 138 117 200
149 l40 20 50 -26 c95 -51 180 -124 264 -227 45 -56 148 -260 143 -286 -2 -10
-3 -92 -1 -134 0 -22 0 -44 -1 -50 -1 -12 0 -133 2 -192 1 -24 -1 -45 -3 -48
-3 -3 -4 -18 -1 -35 4 -27 25 -44 48 -39 5 1 20 0 34 -4 22 -5 63 -13 173 -32
57 -10 84 -16 152 -31 39 -9 84 -18 100 -21 17 -2 102 -23 190 -45 88 -22 167
-41 175 -43 8 -2 16 -4 18 -5 2 -3 6 -4 47 -14 17 -4 37 -10 45 -13 8 -3 22
-7 30 -8 8 -2 46 -13 84 -25 38 -12 76 -23 85 -25 9 -2 40 -13 69 -24 28 -10
52 -18 52 -16 0 2 28 -8 63 -21 34 -14 72 -27 84 -30 12 -2 42 -13 67 -24 26
-11 47 -19 49 -19 2 0 54 -18 77 -28 8 -3 17 -7 20 -8 10 -2 126 -47 155 -60
17 -7 75 -32 130 -55 95 -41 148 -65 275 -123 30 -14 56 -24 58 -22 2 2 3 638
3 1414 0 1540 4 1433 -56 1506 l-24 30 -1 -25 c-1 -14 -2 -49 -2 -77 l0 -53
-27 15 c-62 32 -76 57 -76 142 l0 78 -74 37 c-86 42 -280 102 -366 113 -16 2
-60 8 -97 14 -36 6 -116 14 -177 17 l-111 6 0 -115 0 -114 -70 0 c-41 0 -70 4
-73 11 -2 6 -3 57 -2 112 l1 102 -50 -4 c-116 -10 -141 -13 -141 -14 0 -1 -11
-3 -25 -4 -120 -9 -434 -104 -486 -147 -7 -5 -12 -42 -12 -87 0 -42 -1 -86 -1
-97 -1 -12 -17 -38 -36 -58 l-35 -37 -1 32 c-1 18 -1 68 -1 110 l0 77 -29 -21
c-16 -12 -29 -25 -29 -28 0 -3 -8 -15 -18 -26 -33 -36 -50 -88 -50 -157 0 -38
-3 -72 -7 -75 -3 -3 -29 -6 -58 -6 l-52 -1 3 -45 c1 -25 2 -52 2 -60 -1 -99
-3 -130 -7 -127 -2 3 -20 1 -39 -3 -18 -4 -34 -4 -34 0 0 5 -12 5 -27 1 -16
-4 -41 -5 -58 -2 -23 5 -31 13 -36 39 -4 18 -4 34 0 36 5 4 5 72 -2 136 l-2
25 -330 2 c-181 0 -337 -1 -345 -3 -12 -3 -15 -24 -14 -118 1 -103 -1 -115
-18 -119 -10 -3 -21 -1 -24 4 -4 6 -10 6 -18 0 -6 -5 -17 -6 -25 -2 -7 4 -30
5 -51 1 -21 -4 -43 -4 -49 -1 -6 4 -12 56 -13 121 l-3 115 -59 2 c-62 2 -81
15 -66 44 5 9 6 19 3 23 -4 4 -6 24 -5 44 4 55 -59 166 -109 192 -13 8 -15 -4
-14 -91 0 -55 -2 -102 -6 -104 -3 -2 -20 11 -38 29 -31 32 -32 35 -33 132 l-2
99 -45 24 c-25 13 -50 24 -56 25 -5 1 -14 4 -20 7 -8 5 -77 30 -95 34 -52 13
-69 18 -90 26 -30 10 -101 24 -175 34 -139 19 -211 24 -221 16 -5 -3 -9 -53
-9 -111 l0 -105 -71 -1 -70 -2 0 112 1 111 -78 1 c-42 0 -78 0 -80 -2z"/>
<path d="M8678 8337 c-7 -8 -34 -26 -58 -42 -25 -15 -47 -31 -50 -34 -3 -3
-16 -12 -30 -20 l-24 -14 17 27 c9 14 24 37 33 51 9 14 15 28 12 31 -5 4 -28
-19 -143 -141 -21 -22 -33 -33 -27 -25 6 9 7 22 3 29 -7 10 -10 11 -16 1 -83
-134 -195 -325 -195 -331 0 -5 -3 -9 -8 -9 -4 0 -13 -15 -21 -32 -8 -18 -19
-39 -24 -46 -21 -27 -65 -149 -82 -227 -20 -96 -60 -226 -77 -257 -29 -50 -66
-68 -151 -72 -47 -2 -83 -19 -109 -50 -29 -35 -22 -53 30 -78 26 -13 49 -26
50 -30 2 -5 10 -8 17 -8 27 0 26 -21 -2 -52 -34 -40 -152 -157 -179 -179 -62
-51 -140 -159 -244 -339 -45 -80 -92 -158 -103 -174 l-21 -29 27 7 c15 3 27 4
27 0 0 -3 -18 -40 -40 -82 -42 -79 -51 -121 -18 -89 9 9 21 17 26 17 6 0 13 7
16 16 4 9 9 14 12 11 3 -3 -2 -32 -12 -64 -10 -32 -18 -61 -20 -65 -1 -5 -2
-9 -3 -10 -2 -2 -4 -13 -7 -25 -6 -36 11 -27 56 29 l42 53 -7 -83 c-5 -64 -4
-82 7 -82 7 0 21 17 30 38 10 21 24 46 32 57 12 17 14 13 22 -45 l9 -65 35 55
c19 30 40 61 47 68 7 7 13 17 13 22 0 7 105 148 119 160 4 3 44 50 91 105 47
55 87 102 90 105 3 3 34 39 69 80 57 67 191 217 231 259 9 9 36 40 60 69 67
83 77 84 173 10 132 -100 162 -123 167 -129 13 -15 135 -99 145 -99 6 0 11 38
13 98 3 118 30 214 73 260 25 27 122 86 131 81 2 -1 13 1 26 5 19 6 21 10 11
22 -9 11 -61 14 -285 14 -151 0 -274 1 -274 3 0 2 17 54 38 117 22 63 40 118
41 122 1 4 3 13 6 20 2 7 10 33 16 58 15 54 14 51 22 70 3 8 18 60 32 115 32
121 136 436 167 502 12 27 34 64 50 84 30 39 37 59 15 40 -8 -6 -17 -8 -20 -4
-4 3 -7 0 -7 -7 0 -7 -3 -11 -6 -7 -3 3 -22 -3 -42 -14 l-35 -21 18 28 c10 16
27 38 38 49 30 31 50 65 44 72 -6 5 -51 -23 -136 -84 -23 -16 -22 -12 12 50
37 67 41 79 15 54z"/>
<path d="M2198 6215 c-2 -1 -59 -6 -128 -10 -164 -9 -244 -15 -400 -32 -25 -2
-61 -6 -80 -7 -36 -4 -256 -34 -300 -41 -14 -3 -50 -7 -80 -11 -30 -3 -59 -9
-64 -12 -5 -3 -25 -7 -45 -9 -20 -2 -45 -6 -56 -8 -11 -2 -33 -7 -50 -10 -188
-36 -374 -77 -460 -101 -27 -8 -66 -17 -85 -20 -19 -3 -39 -9 -45 -12 -5 -4
-18 -8 -27 -9 -9 -1 -65 -17 -125 -33 -59 -17 -116 -33 -126 -35 -9 -2 -22 -7
-27 -10 -5 -3 -18 -8 -27 -10 -10 -2 -30 -8 -45 -14 l-28 -11 0 -1218 c0 -968
3 -1219 13 -1219 13 0 86 -11 127 -18 14 -2 52 -7 85 -11 33 -3 63 -8 66 -10
3 -1 37 -6 75 -10 38 -3 78 -8 89 -10 11 -3 47 -7 80 -9 33 -3 71 -7 85 -10
13 -3 54 -7 90 -11 61 -6 86 -8 200 -18 25 -2 73 -7 107 -10 131 -13 306 -27
378 -31 28 -1 100 -6 160 -9 61 -4 146 -9 190 -11 297 -18 614 -24 1160 -24
616 0 815 2 815 11 0 4 13 3 29 -2 16 -4 32 -6 34 -3 3 2 65 6 139 8 73 3 180
7 238 9 58 3 167 8 243 12 242 11 282 13 282 14 0 0 41 3 90 5 108 5 246 13
375 21 52 4 111 7 130 8 26 2 59 20 130 73 371 276 900 579 1365 782 28 12 59
26 70 31 98 44 164 72 180 76 9 2 35 13 165 67 14 5 33 12 43 14 10 1 30 9 45
17 15 7 104 39 197 71 94 32 172 60 175 63 10 8 -327 263 -505 382 -77 52
-399 255 -404 255 -3 1 -24 12 -46 26 -94 60 -509 279 -528 279 -5 0 -23 10
-40 22 -18 13 -33 22 -34 21 -3 -3 -58 21 -148 62 -33 16 -63 29 -67 30 -5 2
-11 4 -15 5 -5 1 -11 2 -15 1 -5 0 -8 3 -8 8 0 5 -10 11 -22 14 -13 2 -72 26
-133 52 -60 25 -117 48 -125 50 -8 2 -16 4 -17 5 -2 2 -6 3 -10 5 -5 1 -17 5
-28 9 -137 53 -203 76 -213 76 -7 0 -20 4 -30 9 -33 19 -325 108 -507 156 -55
15 -107 28 -115 30 -32 9 -106 27 -125 31 -11 2 -30 6 -42 9 -13 3 -32 7 -44
10 -11 2 -28 6 -37 9 -9 3 -35 8 -57 12 -22 3 -43 8 -46 10 -3 2 -21 6 -40 9
-19 3 -47 8 -64 12 -16 3 -37 7 -45 8 -8 2 -31 5 -50 9 -91 17 -157 29 -180
32 -14 1 -36 5 -50 8 -14 2 -47 7 -75 11 -27 3 -63 8 -80 10 -52 9 -129 17
-167 19 -21 0 -38 3 -38 6 0 3 -12 5 -27 6 -26 0 -107 7 -257 20 -32 3 -84 8
-115 10 -64 5 -898 14 -903 9z"/>
<path d="M9353 5850 c0 -47 2 -66 4 -42 2 23 2 61 0 85 -2 23 -4 4 -4 -43z"/>
<path d="M9329 4636 c-2 -2 -26 -7 -54 -11 -78 -10 -107 -16 -250 -45 -55 -11
-112 -23 -126 -25 -43 -8 -340 -75 -404 -91 -33 -9 -70 -18 -82 -20 -12 -2
-34 -9 -48 -14 -14 -5 -25 -7 -25 -5 0 2 -12 0 -27 -6 -16 -6 -35 -12 -43 -14
-8 -2 -49 -14 -90 -25 -41 -12 -79 -23 -85 -24 -19 -4 -189 -58 -280 -88 -49
-16 -94 -31 -100 -32 -5 -2 -17 -5 -25 -8 -8 -3 -78 -29 -155 -57 -77 -29
-147 -53 -155 -56 -26 -6 -235 -92 -365 -150 -27 -12 -75 -32 -105 -46 -106
-46 -556 -277 -658 -337 -57 -34 -107 -62 -112 -62 -5 0 -10 -3 -12 -8 -1 -4
-37 -27 -78 -52 -41 -24 -77 -47 -80 -50 -3 -3 -23 -17 -45 -30 -22 -13 -53
-34 -69 -48 l-29 -24 64 6 c35 3 100 8 144 11 76 5 132 9 270 20 63 5 189 14
265 20 25 2 86 6 135 9 50 4 117 9 150 11 98 8 196 15 265 20 36 3 94 7 130
10 36 3 101 7 145 10 44 3 100 8 125 11 25 2 88 7 140 10 52 3 113 7 135 9 22
1 90 6 150 9 61 4 130 9 155 11 25 2 86 7 135 10 50 3 126 8 170 11 44 3 118
7 165 10 47 2 114 6 150 9 36 2 117 7 180 10 63 3 156 8 205 11 50 3 124 7
165 9 41 1 78 3 83 4 4 1 7 246 7 546 0 447 -2 545 -13 545 -8 0 -16 -2 -18
-4z"/>
<path d="M9327 3294 c-2 -3 -56 -7 -118 -9 -165 -7 -451 -22 -568 -31 -35 -2
-111 -7 -170 -10 -58 -3 -131 -7 -161 -9 -123 -9 -219 -15 -290 -19 -41 -3
-111 -8 -155 -11 -79 -6 -96 -8 -270 -19 -49 -3 -110 -8 -135 -10 -25 -3 -81
-7 -125 -11 -44 -3 -100 -7 -125 -9 -25 -3 -92 -7 -150 -11 -58 -3 -121 -8
-140 -10 -30 -3 -139 -11 -270 -20 -19 -1 -75 -5 -125 -9 -49 -4 -124 -9 -165
-12 -41 -3 -100 -7 -130 -10 -129 -10 -281 -21 -415 -29 -55 -4 -116 -8 -135
-10 -19 -2 -80 -6 -135 -10 -55 -3 -125 -8 -155 -10 -30 -2 -98 -7 -150 -10
-52 -3 -129 -7 -170 -10 -41 -3 -122 -7 -180 -10 -58 -3 -132 -8 -165 -10 -73
-5 -310 -16 -425 -20 -47 -2 -85 -4 -85 -5 0 -1 -49 -3 -110 -5 -60 -1 -211
-6 -335 -11 -299 -10 -1378 -11 -1655 0 -422 16 -663 28 -800 42 -32 3 -93 7
-135 9 -41 2 -75 5 -75 6 0 1 -25 3 -55 5 -30 2 -73 5 -95 8 -22 3 -69 8 -105
11 -36 3 -84 7 -107 10 -24 3 -62 7 -85 10 -24 2 -63 7 -88 10 -25 3 -63 8
-85 10 -55 6 -135 15 -165 20 -26 4 -168 23 -224 30 -17 2 -45 7 -63 10 l-32
6 0 -745 c1 -410 4 -748 7 -750 4 -2 30 -7 57 -10 28 -3 66 -9 85 -11 36 -6
57 -8 145 -20 28 -3 66 -8 85 -11 19 -3 53 -7 75 -9 22 -3 60 -8 85 -11 104
-13 186 -22 275 -29 39 -3 84 -8 100 -9 101 -11 350 -32 500 -41 39 -2 97 -7
130 -9 53 -5 238 -14 425 -21 385 -15 1300 -22 1320 -10 5 3 10 1 10 -5 0 -6
4 -8 10 -5 5 3 107 8 227 11 385 9 696 19 858 29 50 2 137 7 195 10 58 3 141
8 185 10 44 3 132 8 195 11 63 3 138 7 165 9 28 2 88 6 135 9 78 5 190 12 330
21 30 2 84 6 120 9 36 3 108 8 160 11 52 3 113 8 135 10 22 3 85 8 140 11 55
3 116 7 135 9 19 2 78 6 130 10 52 3 120 8 150 10 119 10 217 17 400 30 47 3
109 8 137 10 29 2 90 7 135 11 46 3 101 8 123 9 22 2 83 6 135 10 52 3 112 8
135 10 85 7 262 18 312 19 29 1 53 3 53 6 0 3 24 5 53 6 53 1 214 10 322 19
33 3 103 8 155 10 135 7 264 14 345 19 128 9 359 19 422 20 l63 1 0 746 c0
632 -2 748 -14 752 -8 3 -16 4 -19 1z"/>
<path d="M9349 1545 c-3 -2 -72 -7 -154 -10 -158 -7 -202 -9 -380 -20 -60 -3
-141 -8 -180 -10 -99 -5 -284 -17 -325 -20 -19 -2 -75 -6 -125 -9 -49 -3 -121
-8 -160 -11 -38 -2 -113 -7 -165 -10 -52 -4 -114 -8 -137 -10 -36 -3 -110 -9
-278 -20 -22 -2 -74 -6 -115 -9 -41 -3 -109 -8 -150 -11 -75 -5 -143 -10 -255
-20 -33 -3 -96 -7 -140 -10 -44 -3 -102 -8 -130 -10 -27 -3 -86 -7 -130 -10
-102 -6 -227 -15 -285 -20 -44 -4 -115 -9 -275 -20 -131 -9 -195 -14 -280 -21
-44 -3 -111 -8 -150 -10 -38 -2 -99 -6 -135 -8 -36 -2 -108 -7 -160 -10 -52
-3 -131 -9 -175 -11 -44 -3 -123 -8 -175 -10 -52 -2 -95 -5 -95 -5 0 -1 -38
-3 -85 -5 -47 -2 -137 -7 -200 -10 -172 -9 -300 -14 -450 -20 -74 -3 -150 -7
-167 -8 -18 -2 -33 1 -33 6 0 4 -5 5 -12 1 -7 -4 -84 -10 -173 -12 -239 -7
-1294 -6 -1495 1 -325 12 -445 17 -515 21 -66 5 -205 14 -325 21 -91 6 -192
14 -250 20 -30 3 -84 8 -120 11 -36 3 -85 8 -110 10 -25 3 -65 6 -90 9 -25 2
-63 6 -85 9 -22 3 -65 8 -95 11 -30 4 -73 8 -95 11 -22 3 -56 7 -75 9 -58 6
-234 31 -280 40 -14 2 -48 6 -75 9 l-50 4 0 -436 0 -437 4673 -3 4672 -2 0
525 c0 289 -1 525 -3 525 -2 0 -6 -2 -8 -5z"/>
</g>
</svg>
