<svg width="75" height="75" viewBox="0 0 75 75" fill="none" xmlns="http://www.w3.org/2000/svg">
<rect width="75" height="75" fill="white"/>
<path d="M45.5 26H10.5C9.11929 26 8 27.1193 8 28.5C8 29.8807 9.11929 31 10.5 31H45.5C46.8807 31 48 29.8807 48 28.5C48 27.1193 46.8807 26 45.5 26Z" fill="#386193"/>
<path d="M23.5 34H9.5C8.67157 34 8 34.6716 8 35.5C8 36.3284 8.67157 37 9.5 37H23.5C24.3284 37 25 36.3284 25 35.5C25 34.6716 24.3284 34 23.5 34Z" fill="#746D6D"/>
<path d="M67 15H57C56.4477 15 56 15.4477 56 16C56 16.5523 56.4477 17 57 17H67C67.5523 17 68 16.5523 68 16C68 15.4477 67.5523 15 67 15Z" fill="#386193"/>
<path d="M45.5 46H10.5C9.11929 46 8 47.1193 8 48.5C8 49.8807 9.11929 51 10.5 51H45.5C46.8807 51 48 49.8807 48 48.5C48 47.1193 46.8807 46 45.5 46Z" fill="#386193"/>
<path d="M23.5 54H9.5C8.67157 54 8 54.6716 8 55.5C8 56.3284 8.67157 57 9.5 57H23.5C24.3284 57 25 56.3284 25 55.5C25 54.6716 24.3284 54 23.5 54Z" fill="#746D6D"/>
<path d="M67.5 21H7.5C7.22386 21 7 21.2239 7 21.5C7 21.7761 7.22386 22 7.5 22H67.5C67.7761 22 68 21.7761 68 21.5C68 21.2239 67.7761 21 67.5 21Z" fill="black" fill-opacity="0.3"/>
<path d="M67.75 41H7.25C7.11193 41 7 41.1119 7 41.25C7 41.3881 7.11193 41.5 7.25 41.5H67.75C67.8881 41.5 68 41.3881 68 41.25C68 41.1119 67.8881 41 67.75 41Z" fill="#565656" fill-opacity="0.29"/>
<path d="M67.75 61H7.25C7.11193 61 7 61.1119 7 61.25C7 61.3881 7.11193 61.5 7.25 61.5H67.75C67.8881 61.5 68 61.3881 68 61.25C68 61.1119 67.8881 61 67.75 61Z" fill="#565656" fill-opacity="0.29"/>
</svg>
